<?xml version="1.0" encoding="utf-8" standalone="no"?>
<!DOCTYPE svg PUBLIC "-//W3C//DTD SVG 1.1//EN"
  "http://www.w3.org/Graphics/SVG/1.1/DTD/svg11.dtd">
<svg xmlns:xlink="http://www.w3.org/1999/xlink" width="460.8pt" height="345.6pt" viewBox="0 0 460.8 345.6" xmlns="http://www.w3.org/2000/svg" version="1.1">
 <metadata>
  <rdf:RDF xmlns:dc="http://purl.org/dc/elements/1.1/" xmlns:cc="http://creativecommons.org/ns#" xmlns:rdf="http://www.w3.org/1999/02/22-rdf-syntax-ns#">
   <cc:Work>
    <dc:type rdf:resource="http://purl.org/dc/dcmitype/StillImage"/>
    <dc:date>2026-03-11T15:05:54.708550</dc:date>
    <dc:format>image/svg+xml</dc:format>
    <dc:creator>
     <cc:Agent>
      <dc:title>Matplotlib v3.10.8, https://matplotlib.org/</dc:title>
     </cc:Agent>
    </dc:creator>
   </cc:Work>
  </rdf:RDF>
 </metadata>
 <defs>
  <style type="text/css">*{stroke-linejoin: round; stroke-linecap: butt}</style>
 </defs>
 <g id="figure_1">
  <g id="patch_1">
   <path d="M 0 345.6 
L 460.8 345.6 
L 460.8 0 
L 0 0 
L 0 345.6 
z
" style="fill: none"/>
  </g>
  <g id="axes_1">
   <g id="patch_2">
    <path d="M 57.6 307.584 
L 414.72 307.584 
L 414.72 41.472 
L 57.6 41.472 
L 57.6 307.584 
z
" style="fill: none"/>
   </g>
   <g id="PathCollection_1">
    <defs>
     <path id="m069db1846c" d="M 0 3 
C 0.795609 3 1.55874 2.683901 2.12132 2.12132 
C 2.683901 1.55874 3 0.795609 3 0 
C 3 -0.795609 2.683901 -1.55874 2.12132 -2.12132 
C 1.55874 -2.683901 0.795609 -3 0 -3 
C -0.795609 -3 -1.55874 -2.683901 -2.12132 -2.12132 
C -2.683901 -1.55874 -3 -0.795609 -3 0 
C -3 0.795609 -2.683901 1.55874 -2.12132 2.12132 
C -1.55874 2.683901 -0.795609 3 0 3 
z
" style="stroke: #c58011"/>
    </defs>
    <g clip-path="url(#p6085ba75b4)">
     <use xlink:href="#m069db1846c" x="234.269881" y="189.57508" style="fill: #c58011; stroke: #c58011"/>
     <use xlink:href="#m069db1846c" x="123.302468" y="155.866695" style="fill: #c58011; stroke: #c58011"/>
     <use xlink:href="#m069db1846c" x="165.325634" y="217.325587" style="fill: #c58011; stroke: #c58011"/>
     <use xlink:href="#m069db1846c" x="100.851734" y="166.451743" style="fill: #c58011; stroke: #c58011"/>
     <use xlink:href="#m069db1846c" x="250.565824" y="125.524123" style="fill: #c58011; stroke: #c58011"/>
     <use xlink:href="#m069db1846c" x="286.185296" y="215.736451" style="fill: #c58011; stroke: #c58011"/>
     <use xlink:href="#m069db1846c" x="-1" y="167.08051" style="fill: #c58011; stroke: #c58011"/>
     <use xlink:href="#m069db1846c" x="-1" y="170.165414" style="fill: #c58011; stroke: #c58011"/>
     <use xlink:href="#m069db1846c" x="197.79809" y="226.461482" style="fill: #c58011; stroke: #c58011"/>
     <use xlink:href="#m069db1846c" x="222.319553" y="193.160694" style="fill: #c58011; stroke: #c58011"/>
     <use xlink:href="#m069db1846c" x="140.374379" y="119.618827" style="fill: #c58011; stroke: #c58011"/>
     <use xlink:href="#m069db1846c" x="41.918547" y="189.928815" style="fill: #c58011; stroke: #c58011"/>
     <use xlink:href="#m069db1846c" x="255.472117" y="203.553689" style="fill: #c58011; stroke: #c58011"/>
     <use xlink:href="#m069db1846c" x="178.735989" y="250.944331" style="fill: #c58011; stroke: #c58011"/>
     <use xlink:href="#m069db1846c" x="246.220251" y="165.315776" style="fill: #c58011; stroke: #c58011"/>
     <use xlink:href="#m069db1846c" x="195.607055" y="226.669153" style="fill: #c58011; stroke: #c58011"/>
     <use xlink:href="#m069db1846c" x="227.413123" y="252.520314" style="fill: #c58011; stroke: #c58011"/>
     <use xlink:href="#m069db1846c" x="397.741528" y="266.965119" style="fill: #c58011; stroke: #c58011"/>
     <use xlink:href="#m069db1846c" x="297.588836" y="257.846858" style="fill: #c58011; stroke: #c58011"/>
     <use xlink:href="#m069db1846c" x="253.215564" y="196.552527" style="fill: #c58011; stroke: #c58011"/>
     <use xlink:href="#m069db1846c" x="55.014822" y="190.502223" style="fill: #c58011; stroke: #c58011"/>
     <use xlink:href="#m069db1846c" x="169.167308" y="274.87659" style="fill: #c58011; stroke: #c58011"/>
     <use xlink:href="#m069db1846c" x="273.680574" y="164.79271" style="fill: #c58011; stroke: #c58011"/>
     <use xlink:href="#m069db1846c" x="314.276386" y="235.47442" style="fill: #c58011; stroke: #c58011"/>
     <use xlink:href="#m069db1846c" x="298.899261" y="166.898352" style="fill: #c58011; stroke: #c58011"/>
     <use xlink:href="#m069db1846c" x="223.275597" y="247.203531" style="fill: #c58011; stroke: #c58011"/>
     <use xlink:href="#m069db1846c" x="186.083034" y="245.885945" style="fill: #c58011; stroke: #c58011"/>
     <use xlink:href="#m069db1846c" x="98.4706" y="153.244803" style="fill: #c58011; stroke: #c58011"/>
     <use xlink:href="#m069db1846c" x="212.47812" y="301.117265" style="fill: #c58011; stroke: #c58011"/>
     <use xlink:href="#m069db1846c" x="246.220251" y="285.033142" style="fill: #c58011; stroke: #c58011"/>
     <use xlink:href="#m069db1846c" x="238.866197" y="194.379134" style="fill: #c58011; stroke: #c58011"/>
     <use xlink:href="#m069db1846c" x="206.284908" y="171.821139" style="fill: #c58011; stroke: #c58011"/>
     <use xlink:href="#m069db1846c" x="161.240055" y="246.670896" style="fill: #c58011; stroke: #c58011"/>
     <use xlink:href="#m069db1846c" x="157.97158" y="254.130733" style="fill: #c58011; stroke: #c58011"/>
     <use xlink:href="#m069db1846c" x="225.733957" y="252.671563" style="fill: #c58011; stroke: #c58011"/>
     <use xlink:href="#m069db1846c" x="314.804795" y="276.213122" style="fill: #c58011; stroke: #c58011"/>
     <use xlink:href="#m069db1846c" x="157.114795" y="139.743431" style="fill: #c58011; stroke: #c58011"/>
     <use xlink:href="#m069db1846c" x="274.901036" y="284.143668" style="fill: #c58011; stroke: #c58011"/>
     <use xlink:href="#m069db1846c" x="246.220251" y="228.537681" style="fill: #c58011; stroke: #c58011"/>
     <use xlink:href="#m069db1846c" x="80.173419" y="198.514665" style="fill: #c58011; stroke: #c58011"/>
     <use xlink:href="#m069db1846c" x="234.269881" y="330.078131" style="fill: #c58011; stroke: #c58011"/>
     <use xlink:href="#m069db1846c" x="274.430878" y="163.483317" style="fill: #c58011; stroke: #c58011"/>
     <use xlink:href="#m069db1846c" x="357.431547" y="314.145561" style="fill: #c58011; stroke: #c58011"/>
     <use xlink:href="#m069db1846c" x="389.624306" y="297.157433" style="fill: #c58011; stroke: #c58011"/>
     <use xlink:href="#m069db1846c" x="261.055119" y="249.929274" style="fill: #c58011; stroke: #c58011"/>
     <use xlink:href="#m069db1846c" x="25.138961" y="270.020018" style="fill: #c58011; stroke: #c58011"/>
     <use xlink:href="#m069db1846c" x="-1" y="193.285876" style="fill: #c58011; stroke: #c58011"/>
     <use xlink:href="#m069db1846c" x="-1" y="184.413213" style="fill: #c58011; stroke: #c58011"/>
     <use xlink:href="#m069db1846c" x="145.449806" y="266.611319" style="fill: #c58011; stroke: #c58011"/>
     <use xlink:href="#m069db1846c" x="309.955386" y="248.779162" style="fill: #c58011; stroke: #c58011"/>
     <use xlink:href="#m069db1846c" x="167.488591" y="195.803868" style="fill: #c58011; stroke: #c58011"/>
     <use xlink:href="#m069db1846c" x="347.134187" y="185.528614" style="fill: #c58011; stroke: #c58011"/>
     <use xlink:href="#m069db1846c" x="218.238954" y="326.746161" style="fill: #c58011; stroke: #c58011"/>
    </g>
   </g>
   <g id="matplotlib.axis_1">
    <g id="xtick_1">
     <g id="line2d_1">
      <path d="M 102.81617 307.584 
L 102.81617 41.472 
" clip-path="url(#p6085ba75b4)" style="fill: none; stroke: #b0b0b0; stroke-opacity: 0.2; stroke-width: 0.8; stroke-linecap: square"/>
     </g>
     <g id="line2d_2">
      <defs>
       <path id="m617cf55205" d="M 0 0 
L 0 3.5 
" style="stroke: #000000; stroke-width: 0.8"/>
      </defs>
      <g>
       <use xlink:href="#m617cf55205" x="102.81617" y="307.584" style="stroke: #000000; stroke-width: 0.8"/>
      </g>
     </g>
     <g id="text_1">
      <!-- 0.4 -->
      <g transform="translate(94.864607 322.182437) scale(0.1 -0.1)">
       <defs>
        <path id="DejaVuSans-30" d="M 2034 4250 
Q 1547 4250 1301 3770 
Q 1056 3291 1056 2328 
Q 1056 1369 1301 889 
Q 1547 409 2034 409 
Q 2525 409 2770 889 
Q 3016 1369 3016 2328 
Q 3016 3291 2770 3770 
Q 2525 4250 2034 4250 
z
M 2034 4750 
Q 2819 4750 3233 4129 
Q 3647 3509 3647 2328 
Q 3647 1150 3233 529 
Q 2819 -91 2034 -91 
Q 1250 -91 836 529 
Q 422 1150 422 2328 
Q 422 3509 836 4129 
Q 1250 4750 2034 4750 
z
" transform="scale(0.015625)"/>
        <path id="DejaVuSans-2e" d="M 684 794 
L 1344 794 
L 1344 0 
L 684 0 
L 684 794 
z
" transform="scale(0.015625)"/>
        <path id="DejaVuSans-34" d="M 2419 4116 
L 825 1625 
L 2419 1625 
L 2419 4116 
z
M 2253 4666 
L 3047 4666 
L 3047 1625 
L 3713 1625 
L 3713 1100 
L 3047 1100 
L 3047 0 
L 2419 0 
L 2419 1100 
L 313 1100 
L 313 1709 
L 2253 4666 
z
" transform="scale(0.015625)"/>
       </defs>
       <use xlink:href="#DejaVuSans-30"/>
       <use xlink:href="#DejaVuSans-2e" transform="translate(63.623047 0)"/>
       <use xlink:href="#DejaVuSans-34" transform="translate(95.410156 0)"/>
      </g>
     </g>
    </g>
    <g id="xtick_2">
     <g id="line2d_3">
      <path d="M 174.518202 307.584 
L 174.518202 41.472 
" clip-path="url(#p6085ba75b4)" style="fill: none; stroke: #b0b0b0; stroke-opacity: 0.2; stroke-width: 0.8; stroke-linecap: square"/>
     </g>
     <g id="line2d_4">
      <g>
       <use xlink:href="#m617cf55205" x="174.518202" y="307.584" style="stroke: #000000; stroke-width: 0.8"/>
      </g>
     </g>
     <g id="text_2">
      <!-- 0.5 -->
      <g transform="translate(166.566639 322.182437) scale(0.1 -0.1)">
       <defs>
        <path id="DejaVuSans-35" d="M 691 4666 
L 3169 4666 
L 3169 4134 
L 1269 4134 
L 1269 2991 
Q 1406 3038 1543 3061 
Q 1681 3084 1819 3084 
Q 2600 3084 3056 2656 
Q 3513 2228 3513 1497 
Q 3513 744 3044 326 
Q 2575 -91 1722 -91 
Q 1428 -91 1123 -41 
Q 819 9 494 109 
L 494 744 
Q 775 591 1075 516 
Q 1375 441 1709 441 
Q 2250 441 2565 725 
Q 2881 1009 2881 1497 
Q 2881 1984 2565 2268 
Q 2250 2553 1709 2553 
Q 1456 2553 1204 2497 
Q 953 2441 691 2322 
L 691 4666 
z
" transform="scale(0.015625)"/>
       </defs>
       <use xlink:href="#DejaVuSans-30"/>
       <use xlink:href="#DejaVuSans-2e" transform="translate(63.623047 0)"/>
       <use xlink:href="#DejaVuSans-35" transform="translate(95.410156 0)"/>
      </g>
     </g>
    </g>
    <g id="xtick_3">
     <g id="line2d_5">
      <path d="M 246.220234 307.584 
L 246.220234 41.472 
" clip-path="url(#p6085ba75b4)" style="fill: none; stroke: #b0b0b0; stroke-opacity: 0.2; stroke-width: 0.8; stroke-linecap: square"/>
     </g>
     <g id="line2d_6">
      <g>
       <use xlink:href="#m617cf55205" x="246.220234" y="307.584" style="stroke: #000000; stroke-width: 0.8"/>
      </g>
     </g>
     <g id="text_3">
      <!-- 0.6 -->
      <g transform="translate(238.268671 322.182437) scale(0.1 -0.1)">
       <defs>
        <path id="DejaVuSans-36" d="M 2113 2584 
Q 1688 2584 1439 2293 
Q 1191 2003 1191 1497 
Q 1191 994 1439 701 
Q 1688 409 2113 409 
Q 2538 409 2786 701 
Q 3034 994 3034 1497 
Q 3034 2003 2786 2293 
Q 2538 2584 2113 2584 
z
M 3366 4563 
L 3366 3988 
Q 3128 4100 2886 4159 
Q 2644 4219 2406 4219 
Q 1781 4219 1451 3797 
Q 1122 3375 1075 2522 
Q 1259 2794 1537 2939 
Q 1816 3084 2150 3084 
Q 2853 3084 3261 2657 
Q 3669 2231 3669 1497 
Q 3669 778 3244 343 
Q 2819 -91 2113 -91 
Q 1303 -91 875 529 
Q 447 1150 447 2328 
Q 447 3434 972 4092 
Q 1497 4750 2381 4750 
Q 2619 4750 2861 4703 
Q 3103 4656 3366 4563 
z
" transform="scale(0.015625)"/>
       </defs>
       <use xlink:href="#DejaVuSans-30"/>
       <use xlink:href="#DejaVuSans-2e" transform="translate(63.623047 0)"/>
       <use xlink:href="#DejaVuSans-36" transform="translate(95.410156 0)"/>
      </g>
     </g>
    </g>
    <g id="xtick_4">
     <g id="line2d_7">
      <path d="M 317.922265 307.584 
L 317.922265 41.472 
" clip-path="url(#p6085ba75b4)" style="fill: none; stroke: #b0b0b0; stroke-opacity: 0.2; stroke-width: 0.8; stroke-linecap: square"/>
     </g>
     <g id="line2d_8">
      <g>
       <use xlink:href="#m617cf55205" x="317.922265" y="307.584" style="stroke: #000000; stroke-width: 0.8"/>
      </g>
     </g>
     <g id="text_4">
      <!-- 0.7 -->
      <g transform="translate(309.970703 322.182437) scale(0.1 -0.1)">
       <defs>
        <path id="DejaVuSans-37" d="M 525 4666 
L 3525 4666 
L 3525 4397 
L 1831 0 
L 1172 0 
L 2766 4134 
L 525 4134 
L 525 4666 
z
" transform="scale(0.015625)"/>
       </defs>
       <use xlink:href="#DejaVuSans-30"/>
       <use xlink:href="#DejaVuSans-2e" transform="translate(63.623047 0)"/>
       <use xlink:href="#DejaVuSans-37" transform="translate(95.410156 0)"/>
      </g>
     </g>
    </g>
    <g id="xtick_5">
     <g id="line2d_9">
      <path d="M 389.624297 307.584 
L 389.624297 41.472 
" clip-path="url(#p6085ba75b4)" style="fill: none; stroke: #b0b0b0; stroke-opacity: 0.2; stroke-width: 0.8; stroke-linecap: square"/>
     </g>
     <g id="line2d_10">
      <g>
       <use xlink:href="#m617cf55205" x="389.624297" y="307.584" style="stroke: #000000; stroke-width: 0.8"/>
      </g>
     </g>
     <g id="text_5">
      <!-- 0.8 -->
      <g transform="translate(381.672735 322.182437) scale(0.1 -0.1)">
       <defs>
        <path id="DejaVuSans-38" d="M 2034 2216 
Q 1584 2216 1326 1975 
Q 1069 1734 1069 1313 
Q 1069 891 1326 650 
Q 1584 409 2034 409 
Q 2484 409 2743 651 
Q 3003 894 3003 1313 
Q 3003 1734 2745 1975 
Q 2488 2216 2034 2216 
z
M 1403 2484 
Q 997 2584 770 2862 
Q 544 3141 544 3541 
Q 544 4100 942 4425 
Q 1341 4750 2034 4750 
Q 2731 4750 3128 4425 
Q 3525 4100 3525 3541 
Q 3525 3141 3298 2862 
Q 3072 2584 2669 2484 
Q 3125 2378 3379 2068 
Q 3634 1759 3634 1313 
Q 3634 634 3220 271 
Q 2806 -91 2034 -91 
Q 1263 -91 848 271 
Q 434 634 434 1313 
Q 434 1759 690 2068 
Q 947 2378 1403 2484 
z
M 1172 3481 
Q 1172 3119 1398 2916 
Q 1625 2713 2034 2713 
Q 2441 2713 2670 2916 
Q 2900 3119 2900 3481 
Q 2900 3844 2670 4047 
Q 2441 4250 2034 4250 
Q 1625 4250 1398 4047 
Q 1172 3844 1172 3481 
z
" transform="scale(0.015625)"/>
       </defs>
       <use xlink:href="#DejaVuSans-30"/>
       <use xlink:href="#DejaVuSans-2e" transform="translate(63.623047 0)"/>
       <use xlink:href="#DejaVuSans-38" transform="translate(95.410156 0)"/>
      </g>
     </g>
    </g>
   </g>
   <g id="matplotlib.axis_2">
    <g id="ytick_1">
     <g id="line2d_11">
      <path d="M 57.6 292.299262 
L 414.72 292.299262 
" clip-path="url(#p6085ba75b4)" style="fill: none; stroke: #b0b0b0; stroke-opacity: 0.2; stroke-width: 0.8; stroke-linecap: square"/>
     </g>
     <g id="line2d_12">
      <defs>
       <path id="m2a196eee90" d="M 0 0 
L -3.5 0 
" style="stroke: #000000; stroke-width: 0.8"/>
      </defs>
      <g>
       <use xlink:href="#m2a196eee90" x="57.6" y="292.299262" style="stroke: #000000; stroke-width: 0.8"/>
      </g>
     </g>
     <g id="text_6">
      <!-- 18 -->
      <g transform="translate(37.875 296.09848) scale(0.1 -0.1)">
       <defs>
        <path id="DejaVuSans-31" d="M 794 531 
L 1825 531 
L 1825 4091 
L 703 3866 
L 703 4441 
L 1819 4666 
L 2450 4666 
L 2450 531 
L 3481 531 
L 3481 0 
L 794 0 
L 794 531 
z
" transform="scale(0.015625)"/>
       </defs>
       <use xlink:href="#DejaVuSans-31"/>
       <use xlink:href="#DejaVuSans-38" transform="translate(63.623047 0)"/>
      </g>
     </g>
    </g>
    <g id="ytick_2">
     <g id="line2d_13">
      <path d="M 57.6 258.741101 
L 414.72 258.741101 
" clip-path="url(#p6085ba75b4)" style="fill: none; stroke: #b0b0b0; stroke-opacity: 0.2; stroke-width: 0.8; stroke-linecap: square"/>
     </g>
     <g id="line2d_14">
      <g>
       <use xlink:href="#m2a196eee90" x="57.6" y="258.741101" style="stroke: #000000; stroke-width: 0.8"/>
      </g>
     </g>
     <g id="text_7">
      <!-- 20 -->
      <g transform="translate(37.875 262.54032) scale(0.1 -0.1)">
       <defs>
        <path id="DejaVuSans-32" d="M 1228 531 
L 3431 531 
L 3431 0 
L 469 0 
L 469 531 
Q 828 903 1448 1529 
Q 2069 2156 2228 2338 
Q 2531 2678 2651 2914 
Q 2772 3150 2772 3378 
Q 2772 3750 2511 3984 
Q 2250 4219 1831 4219 
Q 1534 4219 1204 4116 
Q 875 4013 500 3803 
L 500 4441 
Q 881 4594 1212 4672 
Q 1544 4750 1819 4750 
Q 2544 4750 2975 4387 
Q 3406 4025 3406 3419 
Q 3406 3131 3298 2873 
Q 3191 2616 2906 2266 
Q 2828 2175 2409 1742 
Q 1991 1309 1228 531 
z
" transform="scale(0.015625)"/>
       </defs>
       <use xlink:href="#DejaVuSans-32"/>
       <use xlink:href="#DejaVuSans-30" transform="translate(63.623047 0)"/>
      </g>
     </g>
    </g>
    <g id="ytick_3">
     <g id="line2d_15">
      <path d="M 57.6 225.18294 
L 414.72 225.18294 
" clip-path="url(#p6085ba75b4)" style="fill: none; stroke: #b0b0b0; stroke-opacity: 0.2; stroke-width: 0.8; stroke-linecap: square"/>
     </g>
     <g id="line2d_16">
      <g>
       <use xlink:href="#m2a196eee90" x="57.6" y="225.18294" style="stroke: #000000; stroke-width: 0.8"/>
      </g>
     </g>
     <g id="text_8">
      <!-- 22 -->
      <g transform="translate(37.875 228.982159) scale(0.1 -0.1)">
       <use xlink:href="#DejaVuSans-32"/>
       <use xlink:href="#DejaVuSans-32" transform="translate(63.623047 0)"/>
      </g>
     </g>
    </g>
    <g id="ytick_4">
     <g id="line2d_17">
      <path d="M 57.6 191.62478 
L 414.72 191.62478 
" clip-path="url(#p6085ba75b4)" style="fill: none; stroke: #b0b0b0; stroke-opacity: 0.2; stroke-width: 0.8; stroke-linecap: square"/>
     </g>
     <g id="line2d_18">
      <g>
       <use xlink:href="#m2a196eee90" x="57.6" y="191.62478" style="stroke: #000000; stroke-width: 0.8"/>
      </g>
     </g>
     <g id="text_9">
      <!-- 24 -->
      <g transform="translate(37.875 195.423998) scale(0.1 -0.1)">
       <use xlink:href="#DejaVuSans-32"/>
       <use xlink:href="#DejaVuSans-34" transform="translate(63.623047 0)"/>
      </g>
     </g>
    </g>
    <g id="ytick_5">
     <g id="line2d_19">
      <path d="M 57.6 158.066619 
L 414.72 158.066619 
" clip-path="url(#p6085ba75b4)" style="fill: none; stroke: #b0b0b0; stroke-opacity: 0.2; stroke-width: 0.8; stroke-linecap: square"/>
     </g>
     <g id="line2d_20">
      <g>
       <use xlink:href="#m2a196eee90" x="57.6" y="158.066619" style="stroke: #000000; stroke-width: 0.8"/>
      </g>
     </g>
     <g id="text_10">
      <!-- 26 -->
      <g transform="translate(37.875 161.865838) scale(0.1 -0.1)">
       <use xlink:href="#DejaVuSans-32"/>
       <use xlink:href="#DejaVuSans-36" transform="translate(63.623047 0)"/>
      </g>
     </g>
    </g>
    <g id="ytick_6">
     <g id="line2d_21">
      <path d="M 57.6 124.508458 
L 414.72 124.508458 
" clip-path="url(#p6085ba75b4)" style="fill: none; stroke: #b0b0b0; stroke-opacity: 0.2; stroke-width: 0.8; stroke-linecap: square"/>
     </g>
     <g id="line2d_22">
      <g>
       <use xlink:href="#m2a196eee90" x="57.6" y="124.508458" style="stroke: #000000; stroke-width: 0.8"/>
      </g>
     </g>
     <g id="text_11">
      <!-- 28 -->
      <g transform="translate(37.875 128.307677) scale(0.1 -0.1)">
       <use xlink:href="#DejaVuSans-32"/>
       <use xlink:href="#DejaVuSans-38" transform="translate(63.623047 0)"/>
      </g>
     </g>
    </g>
    <g id="ytick_7">
     <g id="line2d_23">
      <path d="M 57.6 90.950298 
L 414.72 90.950298 
" clip-path="url(#p6085ba75b4)" style="fill: none; stroke: #b0b0b0; stroke-opacity: 0.2; stroke-width: 0.8; stroke-linecap: square"/>
     </g>
     <g id="line2d_24">
      <g>
       <use xlink:href="#m2a196eee90" x="57.6" y="90.950298" style="stroke: #000000; stroke-width: 0.8"/>
      </g>
     </g>
     <g id="text_12">
      <!-- 30 -->
      <g transform="translate(37.875 94.749516) scale(0.1 -0.1)">
       <defs>
        <path id="DejaVuSans-33" d="M 2597 2516 
Q 3050 2419 3304 2112 
Q 3559 1806 3559 1356 
Q 3559 666 3084 287 
Q 2609 -91 1734 -91 
Q 1441 -91 1130 -33 
Q 819 25 488 141 
L 488 750 
Q 750 597 1062 519 
Q 1375 441 1716 441 
Q 2309 441 2620 675 
Q 2931 909 2931 1356 
Q 2931 1769 2642 2001 
Q 2353 2234 1838 2234 
L 1294 2234 
L 1294 2753 
L 1863 2753 
Q 2328 2753 2575 2939 
Q 2822 3125 2822 3475 
Q 2822 3834 2567 4026 
Q 2313 4219 1838 4219 
Q 1578 4219 1281 4162 
Q 984 4106 628 3988 
L 628 4550 
Q 988 4650 1302 4700 
Q 1616 4750 1894 4750 
Q 2613 4750 3031 4423 
Q 3450 4097 3450 3541 
Q 3450 3153 3228 2886 
Q 3006 2619 2597 2516 
z
" transform="scale(0.015625)"/>
       </defs>
       <use xlink:href="#DejaVuSans-33"/>
       <use xlink:href="#DejaVuSans-30" transform="translate(63.623047 0)"/>
      </g>
     </g>
    </g>
    <g id="ytick_8">
     <g id="line2d_25">
      <path d="M 57.6 57.392137 
L 414.72 57.392137 
" clip-path="url(#p6085ba75b4)" style="fill: none; stroke: #b0b0b0; stroke-opacity: 0.2; stroke-width: 0.8; stroke-linecap: square"/>
     </g>
     <g id="line2d_26">
      <g>
       <use xlink:href="#m2a196eee90" x="57.6" y="57.392137" style="stroke: #000000; stroke-width: 0.8"/>
      </g>
     </g>
     <g id="text_13">
      <!-- 32 -->
      <g transform="translate(37.875 61.191356) scale(0.1 -0.1)">
       <use xlink:href="#DejaVuSans-33"/>
       <use xlink:href="#DejaVuSans-32" transform="translate(63.623047 0)"/>
      </g>
     </g>
    </g>
   </g>
   <g id="line2d_27">
    <path d="M 234.269881 226.779653 
L 123.302468 206.139177 
L 165.325634 213.955689 
L 100.851734 201.963232 
L 250.565824 229.810778 
L 286.185296 236.436172 
L -1 183.018316 
M -1 183.018316 
L 197.79809 219.995724 
L 222.319553 224.556834 
L 140.374379 209.314635 
L 41.918547 191.001374 
L 255.472117 230.723372 
L 178.735989 216.450081 
L 246.220251 229.00248 
L 195.607055 219.58818 
L 227.413123 225.504263 
L 397.741528 257.186171 
L 297.588836 238.557285 
L 253.215564 230.303642 
L 55.014822 193.437344 
L 169.167308 214.670259 
L 273.680574 234.110233 
L 314.276386 241.66125 
L 298.899261 238.801031 
L 223.275597 224.734663 
L 186.083034 217.816666 
L 98.4706 201.52033 
L 212.47812 222.72628 
L 246.220251 229.00248 
L 238.866197 227.63459 
L 206.284908 221.574313 
L 161.240055 213.195752 
L 157.97158 212.5878 
L 225.733957 225.19193 
L 314.804795 241.759537 
L 157.114795 212.428434 
L 274.901036 234.337245 
L 246.220251 229.00248 
L 80.173419 198.116965 
L 234.269881 226.779653 
L 274.430878 234.249793 
L 357.431547 249.688319 
L 389.624306 255.676328 
L 261.055119 231.761837 
L 25.138961 187.88029 
L -1 183.018316 
M -1 183.018316 
L 145.449806 210.258689 
L 309.955386 240.857524 
L 167.488591 214.35801 
L 347.134187 247.772961 
L 218.238954 223.797823 
" clip-path="url(#p6085ba75b4)" style="fill: none; stroke: #9e0000; stroke-width: 1.5; stroke-linecap: square"/>
   </g>
   <g id="patch_3">
    <path d="M 57.6 307.584 
L 57.6 41.472 
" style="fill: none; stroke: #000000; stroke-width: 0.8; stroke-linejoin: miter; stroke-linecap: square"/>
   </g>
   <g id="patch_4">
    <path d="M 414.72 307.584 
L 414.72 41.472 
" style="fill: none; stroke: #000000; stroke-width: 0.8; stroke-linejoin: miter; stroke-linecap: square"/>
   </g>
   <g id="patch_5">
    <path d="M 57.6 307.584 
L 414.72 307.584 
" style="fill: none; stroke: #000000; stroke-width: 0.8; stroke-linejoin: miter; stroke-linecap: square"/>
   </g>
   <g id="patch_6">
    <path d="M 57.6 41.472 
L 414.72 41.472 
" style="fill: none; stroke: #000000; stroke-width: 0.8; stroke-linejoin: miter; stroke-linecap: square"/>
   </g>
  </g>
 </g>
 <defs>
  <clipPath id="p6085ba75b4">
   <rect x="57.6" y="41.472" width="357.12" height="266.112"/>
  </clipPath>
 </defs>
</svg>
