<?xml version="1.0" encoding="utf-8" standalone="no"?>
<!DOCTYPE svg PUBLIC "-//W3C//DTD SVG 1.1//EN"
  "http://www.w3.org/Graphics/SVG/1.1/DTD/svg11.dtd">
<svg xmlns:xlink="http://www.w3.org/1999/xlink" width="432pt" height="252pt" viewBox="0 0 432 252" xmlns="http://www.w3.org/2000/svg" version="1.1">
 <metadata>
  <rdf:RDF xmlns:dc="http://purl.org/dc/elements/1.1/" xmlns:cc="http://creativecommons.org/ns#" xmlns:rdf="http://www.w3.org/1999/02/22-rdf-syntax-ns#">
   <cc:Work>
    <dc:type rdf:resource="http://purl.org/dc/dcmitype/StillImage"/>
    <dc:date>1980-01-01T00:00:00+00:00</dc:date>
    <dc:format>image/svg+xml</dc:format>
    <dc:creator>
     <cc:Agent>
      <dc:title>Matplotlib v3.10.8, https://matplotlib.org/</dc:title>
     </cc:Agent>
    </dc:creator>
   </cc:Work>
  </rdf:RDF>
 </metadata>
 <defs>
  <style type="text/css">*{stroke-linejoin: round; stroke-linecap: butt}</style>
 </defs>
 <g id="figure_1">
  <g id="patch_1">
   <path d="M 0 252 
L 432 252 
L 432 0 
L 0 0 
z
" style="fill: #ffffff"/>
  </g>
  <g id="axes_1">
   <g id="patch_2">
    <path d="M 36.97 224.12 
L 410.04 224.12 
L 410.04 10.8 
L 36.97 10.8 
z
" style="fill: #ffffff"/>
   </g>
   <g id="patch_3">
    <path d="M 67.008423 224.12 
L 77.290872 224.12 
L 77.290872 222.854194 
L 67.008423 222.854194 
z
" clip-path="url(#p955fa467b7)" style="fill: #317ca9; opacity: 0.8"/>
   </g>
   <g id="patch_4">
    <path d="M 77.290872 224.12 
L 87.573322 224.12 
L 87.573322 223.487097 
L 77.290872 223.487097 
z
" clip-path="url(#p955fa467b7)" style="fill: #3d83ad; opacity: 0.8"/>
   </g>
   <g id="patch_5">
    <path d="M 87.573322 224.12 
L 97.855772 224.12 
L 97.855772 224.12 
L 87.573322 224.12 
z
" clip-path="url(#p955fa467b7)" style="fill: #4889b0; opacity: 0.8"/>
   </g>
   <g id="patch_6">
    <path d="M 97.855772 224.12 
L 108.138222 224.12 
L 108.138222 224.12 
L 97.855772 224.12 
z
" clip-path="url(#p955fa467b7)" style="fill: #5490b4; opacity: 0.8"/>
   </g>
   <g id="patch_7">
    <path d="M 108.138222 224.12 
L 118.420672 224.12 
L 118.420672 220.955484 
L 108.138222 220.955484 
z
" clip-path="url(#p955fa467b7)" style="fill: #5f97b7; opacity: 0.8"/>
   </g>
   <g id="patch_8">
    <path d="M 118.420672 224.12 
L 128.703122 224.12 
L 128.703122 219.689678 
L 118.420672 219.689678 
z
" clip-path="url(#p955fa467b7)" style="fill: #6b9dbb; opacity: 0.8"/>
   </g>
   <g id="patch_9">
    <path d="M 128.703122 224.12 
L 138.985572 224.12 
L 138.985572 212.727744 
L 128.703122 212.727744 
z
" clip-path="url(#p955fa467b7)" style="fill: #77a4be; opacity: 0.8"/>
   </g>
   <g id="patch_10">
    <path d="M 138.985572 224.12 
L 149.268022 224.12 
L 149.268022 211.461937 
L 138.985572 211.461937 
z
" clip-path="url(#p955fa467b7)" style="fill: #82aac2; opacity: 0.8"/>
   </g>
   <g id="patch_11">
    <path d="M 149.268022 224.12 
L 159.550472 224.12 
L 159.550472 207.664519 
L 149.268022 207.664519 
z
" clip-path="url(#p955fa467b7)" style="fill: #8eb1c5; opacity: 0.8"/>
   </g>
   <g id="patch_12">
    <path d="M 159.550472 224.12 
L 169.832921 224.12 
L 169.832921 197.538069 
L 159.550472 197.538069 
z
" clip-path="url(#p955fa467b7)" style="fill: #9ab7c9; opacity: 0.8"/>
   </g>
   <g id="patch_13">
    <path d="M 169.832921 224.12 
L 180.115371 224.12 
L 180.115371 191.84194 
L 169.832921 191.84194 
z
" clip-path="url(#p955fa467b7)" style="fill: #a5becc; opacity: 0.8"/>
   </g>
   <g id="patch_14">
    <path d="M 180.115371 224.12 
L 190.397821 224.12 
L 190.397821 180.449684 
L 180.115371 180.449684 
z
" clip-path="url(#p955fa467b7)" style="fill: #b1c4d0; opacity: 0.8"/>
   </g>
   <g id="patch_15">
    <path d="M 190.397821 224.12 
L 200.680271 224.12 
L 200.680271 186.778715 
L 190.397821 186.778715 
z
" clip-path="url(#p955fa467b7)" style="fill: #bdcbd3; opacity: 0.8"/>
   </g>
   <g id="patch_16">
    <path d="M 200.680271 224.12 
L 210.962721 224.12 
L 210.962721 169.690331 
L 200.680271 169.690331 
z
" clip-path="url(#p955fa467b7)" style="fill: #c8d1d7; opacity: 0.8"/>
   </g>
   <g id="patch_17">
    <path d="M 210.962721 224.12 
L 221.245171 224.12 
L 221.245171 161.46259 
L 210.962721 161.46259 
z
" clip-path="url(#p955fa467b7)" style="fill: #d4d8da; opacity: 0.8"/>
   </g>
   <g id="patch_18">
    <path d="M 221.245171 224.12 
L 231.527621 224.12 
L 231.527621 170.323234 
L 221.245171 170.323234 
z
" clip-path="url(#p955fa467b7)" style="fill: #dddcdb; opacity: 0.8"/>
   </g>
   <g id="patch_19">
    <path d="M 231.527621 224.12 
L 241.810071 224.12 
L 241.810071 165.260009 
L 231.527621 165.260009 
z
" clip-path="url(#p955fa467b7)" style="fill: #dfd7d3; opacity: 0.8"/>
   </g>
   <g id="patch_20">
    <path d="M 241.810071 224.12 
L 252.09252 224.12 
L 252.09252 179.183878 
L 241.810071 179.183878 
z
" clip-path="url(#p955fa467b7)" style="fill: #e1d3cc; opacity: 0.8"/>
   </g>
   <g id="patch_21">
    <path d="M 252.09252 224.12 
L 262.37497 224.12 
L 262.37497 178.550975 
L 252.09252 178.550975 
z
" clip-path="url(#p955fa467b7)" style="fill: #e3cec5; opacity: 0.8"/>
   </g>
   <g id="patch_22">
    <path d="M 262.37497 224.12 
L 272.65742 224.12 
L 272.65742 188.044522 
L 262.37497 188.044522 
z
" clip-path="url(#p955fa467b7)" style="fill: #e4cabd; opacity: 0.8"/>
   </g>
   <g id="patch_23">
    <path d="M 272.65742 224.12 
L 282.93987 224.12 
L 282.93987 197.538069 
L 272.65742 197.538069 
z
" clip-path="url(#p955fa467b7)" style="fill: #e6c5b6; opacity: 0.8"/>
   </g>
   <g id="patch_24">
    <path d="M 282.93987 224.12 
L 293.22232 224.12 
L 293.22232 204.500003 
L 282.93987 204.500003 
z
" clip-path="url(#p955fa467b7)" style="fill: #e8c1af; opacity: 0.8"/>
   </g>
   <g id="patch_25">
    <path d="M 293.22232 224.12 
L 303.50477 224.12 
L 303.50477 211.461937 
L 293.22232 211.461937 
z
" clip-path="url(#p955fa467b7)" style="fill: #eabda8; opacity: 0.8"/>
   </g>
   <g id="patch_26">
    <path d="M 303.50477 224.12 
L 313.78722 224.12 
L 313.78722 211.461937 
L 303.50477 211.461937 
z
" clip-path="url(#p955fa467b7)" style="fill: #ebb8a0; opacity: 0.8"/>
   </g>
   <g id="patch_27">
    <path d="M 313.78722 224.12 
L 324.06967 224.12 
L 324.06967 217.158066 
L 313.78722 217.158066 
z
" clip-path="url(#p955fa467b7)" style="fill: #edb499; opacity: 0.8"/>
   </g>
   <g id="patch_28">
    <path d="M 324.06967 224.12 
L 334.35212 224.12 
L 334.35212 220.322581 
L 324.06967 220.322581 
z
" clip-path="url(#p955fa467b7)" style="fill: #efb092; opacity: 0.8"/>
   </g>
   <g id="patch_29">
    <path d="M 334.35212 224.12 
L 344.634569 224.12 
L 344.634569 221.588387 
L 334.35212 221.588387 
z
" clip-path="url(#p955fa467b7)" style="fill: #f0ab8b; opacity: 0.8"/>
   </g>
   <g id="patch_30">
    <path d="M 344.634569 224.12 
L 354.917019 224.12 
L 354.917019 222.854194 
L 344.634569 222.854194 
z
" clip-path="url(#p955fa467b7)" style="fill: #f2a783; opacity: 0.8"/>
   </g>
   <g id="patch_31">
    <path d="M 354.917019 224.12 
L 365.199469 224.12 
L 365.199469 224.12 
L 354.917019 224.12 
z
" clip-path="url(#p955fa467b7)" style="fill: #f4a27c; opacity: 0.8"/>
   </g>
   <g id="patch_32">
    <path d="M 365.199469 224.12 
L 375.481919 224.12 
L 375.481919 223.487097 
L 365.199469 223.487097 
z
" clip-path="url(#p955fa467b7)" style="fill: #f59e75; opacity: 0.8"/>
   </g>
   <g id="matplotlib.axis_1">
    <g id="xtick_1">
     <g id="line2d_1">
      <path d="M 36.97 224.12 
L 36.97 10.8 
" clip-path="url(#p955fa467b7)" style="fill: none; stroke: #b0b0b0; stroke-opacity: 0.2; stroke-width: 0.8; stroke-linecap: square"/>
     </g>
     <g id="line2d_2">
      <defs>
       <path id="m6a327a0655" d="M 0 0 
L 0 3.5 
" style="stroke: #000000; stroke-width: 0.8"/>
      </defs>
      <g>
       <use xlink:href="#m6a327a0655" x="36.97" y="224.12" style="stroke: #000000; stroke-width: 0.8"/>
      </g>
     </g>
     <g id="text_1">
      <!-- −1.00 -->
      <g transform="translate(21.647344 238.718437) scale(0.1 -0.1)">
       <defs>
        <path id="DejaVuSans-2212" d="M 678 2272 
L 4684 2272 
L 4684 1741 
L 678 1741 
L 678 2272 
z
" transform="scale(0.015625)"/>
        <path id="DejaVuSans-31" d="M 794 531 
L 1825 531 
L 1825 4091 
L 703 3866 
L 703 4441 
L 1819 4666 
L 2450 4666 
L 2450 531 
L 3481 531 
L 3481 0 
L 794 0 
L 794 531 
z
" transform="scale(0.015625)"/>
        <path id="DejaVuSans-2e" d="M 684 794 
L 1344 794 
L 1344 0 
L 684 0 
L 684 794 
z
" transform="scale(0.015625)"/>
        <path id="DejaVuSans-30" d="M 2034 4250 
Q 1547 4250 1301 3770 
Q 1056 3291 1056 2328 
Q 1056 1369 1301 889 
Q 1547 409 2034 409 
Q 2525 409 2770 889 
Q 3016 1369 3016 2328 
Q 3016 3291 2770 3770 
Q 2525 4250 2034 4250 
z
M 2034 4750 
Q 2819 4750 3233 4129 
Q 3647 3509 3647 2328 
Q 3647 1150 3233 529 
Q 2819 -91 2034 -91 
Q 1250 -91 836 529 
Q 422 1150 422 2328 
Q 422 3509 836 4129 
Q 1250 4750 2034 4750 
z
" transform="scale(0.015625)"/>
       </defs>
       <use xlink:href="#DejaVuSans-2212"/>
       <use xlink:href="#DejaVuSans-31" transform="translate(83.789062 0)"/>
       <use xlink:href="#DejaVuSans-2e" transform="translate(147.412109 0)"/>
       <use xlink:href="#DejaVuSans-30" transform="translate(179.199219 0)"/>
       <use xlink:href="#DejaVuSans-30" transform="translate(242.822266 0)"/>
      </g>
     </g>
    </g>
    <g id="xtick_2">
     <g id="line2d_3">
      <path d="M 83.60375 224.12 
L 83.60375 10.8 
" clip-path="url(#p955fa467b7)" style="fill: none; stroke: #b0b0b0; stroke-opacity: 0.2; stroke-width: 0.8; stroke-linecap: square"/>
     </g>
     <g id="line2d_4">
      <g>
       <use xlink:href="#m6a327a0655" x="83.60375" y="224.12" style="stroke: #000000; stroke-width: 0.8"/>
      </g>
     </g>
     <g id="text_2">
      <!-- −0.75 -->
      <g transform="translate(68.281094 238.718437) scale(0.1 -0.1)">
       <defs>
        <path id="DejaVuSans-37" d="M 525 4666 
L 3525 4666 
L 3525 4397 
L 1831 0 
L 1172 0 
L 2766 4134 
L 525 4134 
L 525 4666 
z
" transform="scale(0.015625)"/>
        <path id="DejaVuSans-35" d="M 691 4666 
L 3169 4666 
L 3169 4134 
L 1269 4134 
L 1269 2991 
Q 1406 3038 1543 3061 
Q 1681 3084 1819 3084 
Q 2600 3084 3056 2656 
Q 3513 2228 3513 1497 
Q 3513 744 3044 326 
Q 2575 -91 1722 -91 
Q 1428 -91 1123 -41 
Q 819 9 494 109 
L 494 744 
Q 775 591 1075 516 
Q 1375 441 1709 441 
Q 2250 441 2565 725 
Q 2881 1009 2881 1497 
Q 2881 1984 2565 2268 
Q 2250 2553 1709 2553 
Q 1456 2553 1204 2497 
Q 953 2441 691 2322 
L 691 4666 
z
" transform="scale(0.015625)"/>
       </defs>
       <use xlink:href="#DejaVuSans-2212"/>
       <use xlink:href="#DejaVuSans-30" transform="translate(83.789062 0)"/>
       <use xlink:href="#DejaVuSans-2e" transform="translate(147.412109 0)"/>
       <use xlink:href="#DejaVuSans-37" transform="translate(179.199219 0)"/>
       <use xlink:href="#DejaVuSans-35" transform="translate(242.822266 0)"/>
      </g>
     </g>
    </g>
    <g id="xtick_3">
     <g id="line2d_5">
      <path d="M 130.2375 224.12 
L 130.2375 10.8 
" clip-path="url(#p955fa467b7)" style="fill: none; stroke: #b0b0b0; stroke-opacity: 0.2; stroke-width: 0.8; stroke-linecap: square"/>
     </g>
     <g id="line2d_6">
      <g>
       <use xlink:href="#m6a327a0655" x="130.2375" y="224.12" style="stroke: #000000; stroke-width: 0.8"/>
      </g>
     </g>
     <g id="text_3">
      <!-- −0.50 -->
      <g transform="translate(114.914844 238.718437) scale(0.1 -0.1)">
       <use xlink:href="#DejaVuSans-2212"/>
       <use xlink:href="#DejaVuSans-30" transform="translate(83.789062 0)"/>
       <use xlink:href="#DejaVuSans-2e" transform="translate(147.412109 0)"/>
       <use xlink:href="#DejaVuSans-35" transform="translate(179.199219 0)"/>
       <use xlink:href="#DejaVuSans-30" transform="translate(242.822266 0)"/>
      </g>
     </g>
    </g>
    <g id="xtick_4">
     <g id="line2d_7">
      <path d="M 176.87125 224.12 
L 176.87125 10.8 
" clip-path="url(#p955fa467b7)" style="fill: none; stroke: #b0b0b0; stroke-opacity: 0.2; stroke-width: 0.8; stroke-linecap: square"/>
     </g>
     <g id="line2d_8">
      <g>
       <use xlink:href="#m6a327a0655" x="176.87125" y="224.12" style="stroke: #000000; stroke-width: 0.8"/>
      </g>
     </g>
     <g id="text_4">
      <!-- −0.25 -->
      <g transform="translate(161.548594 238.718437) scale(0.1 -0.1)">
       <defs>
        <path id="DejaVuSans-32" d="M 1228 531 
L 3431 531 
L 3431 0 
L 469 0 
L 469 531 
Q 828 903 1448 1529 
Q 2069 2156 2228 2338 
Q 2531 2678 2651 2914 
Q 2772 3150 2772 3378 
Q 2772 3750 2511 3984 
Q 2250 4219 1831 4219 
Q 1534 4219 1204 4116 
Q 875 4013 500 3803 
L 500 4441 
Q 881 4594 1212 4672 
Q 1544 4750 1819 4750 
Q 2544 4750 2975 4387 
Q 3406 4025 3406 3419 
Q 3406 3131 3298 2873 
Q 3191 2616 2906 2266 
Q 2828 2175 2409 1742 
Q 1991 1309 1228 531 
z
" transform="scale(0.015625)"/>
       </defs>
       <use xlink:href="#DejaVuSans-2212"/>
       <use xlink:href="#DejaVuSans-30" transform="translate(83.789062 0)"/>
       <use xlink:href="#DejaVuSans-2e" transform="translate(147.412109 0)"/>
       <use xlink:href="#DejaVuSans-32" transform="translate(179.199219 0)"/>
       <use xlink:href="#DejaVuSans-35" transform="translate(242.822266 0)"/>
      </g>
     </g>
    </g>
    <g id="xtick_5">
     <g id="line2d_9">
      <path d="M 223.505 224.12 
L 223.505 10.8 
" clip-path="url(#p955fa467b7)" style="fill: none; stroke: #b0b0b0; stroke-opacity: 0.2; stroke-width: 0.8; stroke-linecap: square"/>
     </g>
     <g id="line2d_10">
      <g>
       <use xlink:href="#m6a327a0655" x="223.505" y="224.12" style="stroke: #000000; stroke-width: 0.8"/>
      </g>
     </g>
     <g id="text_5">
      <!-- 0.00 -->
      <g transform="translate(212.372187 238.718437) scale(0.1 -0.1)">
       <use xlink:href="#DejaVuSans-30"/>
       <use xlink:href="#DejaVuSans-2e" transform="translate(63.623047 0)"/>
       <use xlink:href="#DejaVuSans-30" transform="translate(95.410156 0)"/>
       <use xlink:href="#DejaVuSans-30" transform="translate(159.033203 0)"/>
      </g>
     </g>
    </g>
    <g id="xtick_6">
     <g id="line2d_11">
      <path d="M 270.13875 224.12 
L 270.13875 10.8 
" clip-path="url(#p955fa467b7)" style="fill: none; stroke: #b0b0b0; stroke-opacity: 0.2; stroke-width: 0.8; stroke-linecap: square"/>
     </g>
     <g id="line2d_12">
      <g>
       <use xlink:href="#m6a327a0655" x="270.13875" y="224.12" style="stroke: #000000; stroke-width: 0.8"/>
      </g>
     </g>
     <g id="text_6">
      <!-- 0.25 -->
      <g transform="translate(259.005937 238.718437) scale(0.1 -0.1)">
       <use xlink:href="#DejaVuSans-30"/>
       <use xlink:href="#DejaVuSans-2e" transform="translate(63.623047 0)"/>
       <use xlink:href="#DejaVuSans-32" transform="translate(95.410156 0)"/>
       <use xlink:href="#DejaVuSans-35" transform="translate(159.033203 0)"/>
      </g>
     </g>
    </g>
    <g id="xtick_7">
     <g id="line2d_13">
      <path d="M 316.7725 224.12 
L 316.7725 10.8 
" clip-path="url(#p955fa467b7)" style="fill: none; stroke: #b0b0b0; stroke-opacity: 0.2; stroke-width: 0.8; stroke-linecap: square"/>
     </g>
     <g id="line2d_14">
      <g>
       <use xlink:href="#m6a327a0655" x="316.7725" y="224.12" style="stroke: #000000; stroke-width: 0.8"/>
      </g>
     </g>
     <g id="text_7">
      <!-- 0.50 -->
      <g transform="translate(305.639687 238.718437) scale(0.1 -0.1)">
       <use xlink:href="#DejaVuSans-30"/>
       <use xlink:href="#DejaVuSans-2e" transform="translate(63.623047 0)"/>
       <use xlink:href="#DejaVuSans-35" transform="translate(95.410156 0)"/>
       <use xlink:href="#DejaVuSans-30" transform="translate(159.033203 0)"/>
      </g>
     </g>
    </g>
    <g id="xtick_8">
     <g id="line2d_15">
      <path d="M 363.40625 224.12 
L 363.40625 10.8 
" clip-path="url(#p955fa467b7)" style="fill: none; stroke: #b0b0b0; stroke-opacity: 0.2; stroke-width: 0.8; stroke-linecap: square"/>
     </g>
     <g id="line2d_16">
      <g>
       <use xlink:href="#m6a327a0655" x="363.40625" y="224.12" style="stroke: #000000; stroke-width: 0.8"/>
      </g>
     </g>
     <g id="text_8">
      <!-- 0.75 -->
      <g transform="translate(352.273437 238.718437) scale(0.1 -0.1)">
       <use xlink:href="#DejaVuSans-30"/>
       <use xlink:href="#DejaVuSans-2e" transform="translate(63.623047 0)"/>
       <use xlink:href="#DejaVuSans-37" transform="translate(95.410156 0)"/>
       <use xlink:href="#DejaVuSans-35" transform="translate(159.033203 0)"/>
      </g>
     </g>
    </g>
    <g id="xtick_9">
     <g id="line2d_17">
      <path d="M 410.04 224.12 
L 410.04 10.8 
" clip-path="url(#p955fa467b7)" style="fill: none; stroke: #b0b0b0; stroke-opacity: 0.2; stroke-width: 0.8; stroke-linecap: square"/>
     </g>
     <g id="line2d_18">
      <g>
       <use xlink:href="#m6a327a0655" x="410.04" y="224.12" style="stroke: #000000; stroke-width: 0.8"/>
      </g>
     </g>
     <g id="text_9">
      <!-- 1.00 -->
      <g transform="translate(398.907187 238.718437) scale(0.1 -0.1)">
       <use xlink:href="#DejaVuSans-31"/>
       <use xlink:href="#DejaVuSans-2e" transform="translate(63.623047 0)"/>
       <use xlink:href="#DejaVuSans-30" transform="translate(95.410156 0)"/>
       <use xlink:href="#DejaVuSans-30" transform="translate(159.033203 0)"/>
      </g>
     </g>
    </g>
   </g>
   <g id="matplotlib.axis_2">
    <g id="ytick_1">
     <g id="line2d_19">
      <path d="M 36.97 224.12 
L 410.04 224.12 
" clip-path="url(#p955fa467b7)" style="fill: none; stroke: #b0b0b0; stroke-opacity: 0.2; stroke-width: 0.8; stroke-linecap: square"/>
     </g>
     <g id="line2d_20">
      <defs>
       <path id="m8a2c5f3c71" d="M 0 0 
L -3.5 0 
" style="stroke: #000000; stroke-width: 0.8"/>
      </defs>
      <g>
       <use xlink:href="#m8a2c5f3c71" x="36.97" y="224.12" style="stroke: #000000; stroke-width: 0.8"/>
      </g>
     </g>
     <g id="text_10">
      <!-- 0 -->
      <g transform="translate(23.6075 227.919219) scale(0.1 -0.1)">
       <use xlink:href="#DejaVuSans-30"/>
      </g>
     </g>
    </g>
    <g id="ytick_2">
     <g id="line2d_21">
      <path d="M 36.97 192.474843 
L 410.04 192.474843 
" clip-path="url(#p955fa467b7)" style="fill: none; stroke: #b0b0b0; stroke-opacity: 0.2; stroke-width: 0.8; stroke-linecap: square"/>
     </g>
     <g id="line2d_22">
      <g>
       <use xlink:href="#m8a2c5f3c71" x="36.97" y="192.474843" style="stroke: #000000; stroke-width: 0.8"/>
      </g>
     </g>
     <g id="text_11">
      <!-- 50 -->
      <g transform="translate(17.245 196.274062) scale(0.1 -0.1)">
       <use xlink:href="#DejaVuSans-35"/>
       <use xlink:href="#DejaVuSans-30" transform="translate(63.623047 0)"/>
      </g>
     </g>
    </g>
    <g id="ytick_3">
     <g id="line2d_23">
      <path d="M 36.97 160.829687 
L 410.04 160.829687 
" clip-path="url(#p955fa467b7)" style="fill: none; stroke: #b0b0b0; stroke-opacity: 0.2; stroke-width: 0.8; stroke-linecap: square"/>
     </g>
     <g id="line2d_24">
      <g>
       <use xlink:href="#m8a2c5f3c71" x="36.97" y="160.829687" style="stroke: #000000; stroke-width: 0.8"/>
      </g>
     </g>
     <g id="text_12">
      <!-- 100 -->
      <g transform="translate(10.8825 164.628906) scale(0.1 -0.1)">
       <use xlink:href="#DejaVuSans-31"/>
       <use xlink:href="#DejaVuSans-30" transform="translate(63.623047 0)"/>
       <use xlink:href="#DejaVuSans-30" transform="translate(127.246094 0)"/>
      </g>
     </g>
    </g>
    <g id="ytick_4">
     <g id="line2d_25">
      <path d="M 36.97 129.18453 
L 410.04 129.18453 
" clip-path="url(#p955fa467b7)" style="fill: none; stroke: #b0b0b0; stroke-opacity: 0.2; stroke-width: 0.8; stroke-linecap: square"/>
     </g>
     <g id="line2d_26">
      <g>
       <use xlink:href="#m8a2c5f3c71" x="36.97" y="129.18453" style="stroke: #000000; stroke-width: 0.8"/>
      </g>
     </g>
     <g id="text_13">
      <!-- 150 -->
      <g transform="translate(10.8825 132.983749) scale(0.1 -0.1)">
       <use xlink:href="#DejaVuSans-31"/>
       <use xlink:href="#DejaVuSans-35" transform="translate(63.623047 0)"/>
       <use xlink:href="#DejaVuSans-30" transform="translate(127.246094 0)"/>
      </g>
     </g>
    </g>
    <g id="ytick_5">
     <g id="line2d_27">
      <path d="M 36.97 97.539374 
L 410.04 97.539374 
" clip-path="url(#p955fa467b7)" style="fill: none; stroke: #b0b0b0; stroke-opacity: 0.2; stroke-width: 0.8; stroke-linecap: square"/>
     </g>
     <g id="line2d_28">
      <g>
       <use xlink:href="#m8a2c5f3c71" x="36.97" y="97.539374" style="stroke: #000000; stroke-width: 0.8"/>
      </g>
     </g>
     <g id="text_14">
      <!-- 200 -->
      <g transform="translate(10.8825 101.338593) scale(0.1 -0.1)">
       <use xlink:href="#DejaVuSans-32"/>
       <use xlink:href="#DejaVuSans-30" transform="translate(63.623047 0)"/>
       <use xlink:href="#DejaVuSans-30" transform="translate(127.246094 0)"/>
      </g>
     </g>
    </g>
    <g id="ytick_6">
     <g id="line2d_29">
      <path d="M 36.97 65.894217 
L 410.04 65.894217 
" clip-path="url(#p955fa467b7)" style="fill: none; stroke: #b0b0b0; stroke-opacity: 0.2; stroke-width: 0.8; stroke-linecap: square"/>
     </g>
     <g id="line2d_30">
      <g>
       <use xlink:href="#m8a2c5f3c71" x="36.97" y="65.894217" style="stroke: #000000; stroke-width: 0.8"/>
      </g>
     </g>
     <g id="text_15">
      <!-- 250 -->
      <g transform="translate(10.8825 69.693436) scale(0.1 -0.1)">
       <use xlink:href="#DejaVuSans-32"/>
       <use xlink:href="#DejaVuSans-35" transform="translate(63.623047 0)"/>
       <use xlink:href="#DejaVuSans-30" transform="translate(127.246094 0)"/>
      </g>
     </g>
    </g>
    <g id="ytick_7">
     <g id="line2d_31">
      <path d="M 36.97 34.249061 
L 410.04 34.249061 
" clip-path="url(#p955fa467b7)" style="fill: none; stroke: #b0b0b0; stroke-opacity: 0.2; stroke-width: 0.8; stroke-linecap: square"/>
     </g>
     <g id="line2d_32">
      <g>
       <use xlink:href="#m8a2c5f3c71" x="36.97" y="34.249061" style="stroke: #000000; stroke-width: 0.8"/>
      </g>
     </g>
     <g id="text_16">
      <!-- 300 -->
      <g transform="translate(10.8825 38.04828) scale(0.1 -0.1)">
       <defs>
        <path id="DejaVuSans-33" d="M 2597 2516 
Q 3050 2419 3304 2112 
Q 3559 1806 3559 1356 
Q 3559 666 3084 287 
Q 2609 -91 1734 -91 
Q 1441 -91 1130 -33 
Q 819 25 488 141 
L 488 750 
Q 750 597 1062 519 
Q 1375 441 1716 441 
Q 2309 441 2620 675 
Q 2931 909 2931 1356 
Q 2931 1769 2642 2001 
Q 2353 2234 1838 2234 
L 1294 2234 
L 1294 2753 
L 1863 2753 
Q 2328 2753 2575 2939 
Q 2822 3125 2822 3475 
Q 2822 3834 2567 4026 
Q 2313 4219 1838 4219 
Q 1578 4219 1281 4162 
Q 984 4106 628 3988 
L 628 4550 
Q 988 4650 1302 4700 
Q 1616 4750 1894 4750 
Q 2613 4750 3031 4423 
Q 3450 4097 3450 3541 
Q 3450 3153 3228 2886 
Q 3006 2619 2597 2516 
z
" transform="scale(0.015625)"/>
       </defs>
       <use xlink:href="#DejaVuSans-33"/>
       <use xlink:href="#DejaVuSans-30" transform="translate(63.623047 0)"/>
       <use xlink:href="#DejaVuSans-30" transform="translate(127.246094 0)"/>
      </g>
     </g>
    </g>
   </g>
   <g id="patch_33">
    <path d="M 36.97 224.12 
L 36.97 10.8 
" style="fill: none; stroke: #000000; stroke-width: 0.8; stroke-linejoin: miter; stroke-linecap: square"/>
   </g>
   <g id="patch_34">
    <path d="M 410.04 224.12 
L 410.04 10.8 
" style="fill: none; stroke: #000000; stroke-width: 0.8; stroke-linejoin: miter; stroke-linecap: square"/>
   </g>
   <g id="patch_35">
    <path d="M 36.97 224.12 
L 410.04 224.12 
" style="fill: none; stroke: #000000; stroke-width: 0.8; stroke-linejoin: miter; stroke-linecap: square"/>
   </g>
   <g id="patch_36">
    <path d="M 36.97 10.8 
L 410.04 10.8 
" style="fill: none; stroke: #000000; stroke-width: 0.8; stroke-linejoin: miter; stroke-linecap: square"/>
   </g>
  </g>
 </g>
 <defs>
  <clipPath id="p955fa467b7">
   <rect x="36.97" y="10.8" width="373.07" height="213.32"/>
  </clipPath>
 </defs>
</svg>
