<?xml version="1.0" encoding="utf-8" standalone="no"?>
<!DOCTYPE svg PUBLIC "-//W3C//DTD SVG 1.1//EN"
  "http://www.w3.org/Graphics/SVG/1.1/DTD/svg11.dtd">
<svg xmlns:xlink="http://www.w3.org/1999/xlink" width="864pt" height="576pt" viewBox="0 0 864 576" xmlns="http://www.w3.org/2000/svg" version="1.1">
 <metadata>
  <rdf:RDF xmlns:dc="http://purl.org/dc/elements/1.1/" xmlns:cc="http://creativecommons.org/ns#" xmlns:rdf="http://www.w3.org/1999/02/22-rdf-syntax-ns#">
   <cc:Work>
    <dc:type rdf:resource="http://purl.org/dc/dcmitype/StillImage"/>
    <dc:date>2026-03-21T11:56:38.771181</dc:date>
    <dc:format>image/svg+xml</dc:format>
    <dc:creator>
     <cc:Agent>
      <dc:title>Matplotlib v3.10.5, https://matplotlib.org/</dc:title>
     </cc:Agent>
    </dc:creator>
   </cc:Work>
  </rdf:RDF>
 </metadata>
 <defs>
  <style type="text/css">*{stroke-linejoin: round; stroke-linecap: butt}</style>
 </defs>
 <g id="figure_1">
  <g id="patch_1">
   <path d="M 0 576 
L 864 576 
L 864 0 
L 0 0 
L 0 576 
z
" style="fill: none"/>
  </g>
  <g id="axes_1">
   <g id="patch_2">
    <path d="M 108 512.64 
L 777.6 512.64 
L 777.6 69.12 
L 108 69.12 
L 108 512.64 
z
" style="fill: none"/>
   </g>
   <g id="patch_3">
    <path d="M 122.347893 512.64 
L 142.605387 512.64 
L 142.605387 508.2048 
L 122.347893 508.2048 
z
" clip-path="url(#pb2ff15e64e)" style="fill: #1871a2; opacity: 0.8"/>
   </g>
   <g id="patch_4">
    <path d="M 142.605387 512.64 
L 162.862881 512.64 
L 162.862881 508.2048 
L 142.605387 508.2048 
z
" clip-path="url(#pb2ff15e64e)" style="fill: #2578a6; opacity: 0.8"/>
   </g>
   <g id="patch_5">
    <path d="M 162.862881 512.64 
L 183.120375 512.64 
L 183.120375 486.0288 
L 162.862881 486.0288 
z
" clip-path="url(#pb2ff15e64e)" style="fill: #317fa9; opacity: 0.8"/>
   </g>
   <g id="patch_6">
    <path d="M 183.120375 512.64 
L 203.377869 512.64 
L 203.377869 450.5472 
L 183.120375 450.5472 
z
" clip-path="url(#pb2ff15e64e)" style="fill: #3e86ad; opacity: 0.8"/>
   </g>
   <g id="patch_7">
    <path d="M 203.377869 512.64 
L 223.635364 512.64 
L 223.635364 423.936 
L 203.377869 423.936 
z
" clip-path="url(#pb2ff15e64e)" style="fill: #4c8db1; opacity: 0.8"/>
   </g>
   <g id="patch_8">
    <path d="M 223.635364 512.64 
L 243.892858 512.64 
L 243.892858 401.76 
L 223.635364 401.76 
z
" clip-path="url(#pb2ff15e64e)" style="fill: #5995b5; opacity: 0.8"/>
   </g>
   <g id="patch_9">
    <path d="M 243.892858 512.64 
L 264.150352 512.64 
L 264.150352 392.8896 
L 243.892858 392.8896 
z
" clip-path="url(#pb2ff15e64e)" style="fill: #649bb9; opacity: 0.8"/>
   </g>
   <g id="patch_10">
    <path d="M 264.150352 512.64 
L 284.407846 512.64 
L 284.407846 330.7968 
L 264.150352 330.7968 
z
" clip-path="url(#pb2ff15e64e)" style="fill: #72a2bd; opacity: 0.8"/>
   </g>
   <g id="patch_11">
    <path d="M 284.407846 512.64 
L 304.665341 512.64 
L 304.665341 375.1488 
L 284.407846 375.1488 
z
" clip-path="url(#pb2ff15e64e)" style="fill: #7faac1; opacity: 0.8"/>
   </g>
   <g id="patch_12">
    <path d="M 304.665341 512.64 
L 324.922835 512.64 
L 324.922835 406.1952 
L 304.665341 406.1952 
z
" clip-path="url(#pb2ff15e64e)" style="fill: #8cb1c5; opacity: 0.8"/>
   </g>
   <g id="patch_13">
    <path d="M 324.922835 512.64 
L 345.180329 512.64 
L 345.180329 468.288 
L 324.922835 468.288 
z
" clip-path="url(#pb2ff15e64e)" style="fill: #98b7c8; opacity: 0.8"/>
   </g>
   <g id="patch_14">
    <path d="M 345.180329 512.64 
L 365.437823 512.64 
L 365.437823 463.8528 
L 345.180329 463.8528 
z
" clip-path="url(#pb2ff15e64e)" style="fill: #a5bfcc; opacity: 0.8"/>
   </g>
   <g id="patch_15">
    <path d="M 365.437823 512.64 
L 385.695318 512.64 
L 385.695318 459.4176 
L 365.437823 459.4176 
z
" clip-path="url(#pb2ff15e64e)" style="fill: #b3c6d0; opacity: 0.8"/>
   </g>
   <g id="patch_16">
    <path d="M 385.695318 512.64 
L 405.952812 512.64 
L 405.952812 459.4176 
L 385.695318 459.4176 
z
" clip-path="url(#pb2ff15e64e)" style="fill: #c0cdd4; opacity: 0.8"/>
   </g>
   <g id="patch_17">
    <path d="M 405.952812 512.64 
L 426.210306 512.64 
L 426.210306 472.7232 
L 405.952812 472.7232 
z
" clip-path="url(#pb2ff15e64e)" style="fill: #ccd3d8; opacity: 0.8"/>
   </g>
   <g id="patch_18">
    <path d="M 426.210306 512.64 
L 446.4678 512.64 
L 446.4678 468.288 
L 426.210306 468.288 
z
" clip-path="url(#pb2ff15e64e)" style="fill: #d9dbdc; opacity: 0.8"/>
   </g>
   <g id="patch_19">
    <path d="M 446.4678 512.64 
L 466.725294 512.64 
L 466.725294 428.3712 
L 446.4678 428.3712 
z
" clip-path="url(#pb2ff15e64e)" style="fill: #ded5d3; opacity: 0.8"/>
   </g>
   <g id="patch_20">
    <path d="M 466.725294 512.64 
L 486.982789 512.64 
L 486.982789 472.7232 
L 466.725294 472.7232 
z
" clip-path="url(#pb2ff15e64e)" style="fill: #decbc6; opacity: 0.8"/>
   </g>
   <g id="patch_21">
    <path d="M 486.982789 512.64 
L 507.240283 512.64 
L 507.240283 463.8528 
L 486.982789 463.8528 
z
" clip-path="url(#pb2ff15e64e)" style="fill: #dfc1b9; opacity: 0.8"/>
   </g>
   <g id="patch_22">
    <path d="M 507.240283 512.64 
L 527.497777 512.64 
L 527.497777 463.8528 
L 507.240283 463.8528 
z
" clip-path="url(#pb2ff15e64e)" style="fill: #e0b6ac; opacity: 0.8"/>
   </g>
   <g id="patch_23">
    <path d="M 527.497777 512.64 
L 547.755271 512.64 
L 547.755271 432.8064 
L 527.497777 432.8064 
z
" clip-path="url(#pb2ff15e64e)" style="fill: #e0ab9e; opacity: 0.8"/>
   </g>
   <g id="patch_24">
    <path d="M 547.755271 512.64 
L 568.012766 512.64 
L 568.012766 437.2416 
L 547.755271 437.2416 
z
" clip-path="url(#pb2ff15e64e)" style="fill: #e1a292; opacity: 0.8"/>
   </g>
   <g id="patch_25">
    <path d="M 568.012766 512.64 
L 588.27026 512.64 
L 588.27026 361.8432 
L 568.012766 361.8432 
z
" clip-path="url(#pb2ff15e64e)" style="fill: #e29784; opacity: 0.8"/>
   </g>
   <g id="patch_26">
    <path d="M 588.27026 512.64 
L 608.527754 512.64 
L 608.527754 330.7968 
L 588.27026 330.7968 
z
" clip-path="url(#pb2ff15e64e)" style="fill: #e38c76; opacity: 0.8"/>
   </g>
   <g id="patch_27">
    <path d="M 608.527754 512.64 
L 628.785248 512.64 
L 628.785248 366.2784 
L 608.527754 366.2784 
z
" clip-path="url(#pb2ff15e64e)" style="fill: #e38168; opacity: 0.8"/>
   </g>
   <g id="patch_28">
    <path d="M 628.785248 512.64 
L 649.042742 512.64 
L 649.042742 397.3248 
L 628.785248 397.3248 
z
" clip-path="url(#pb2ff15e64e)" style="fill: #e4775c; opacity: 0.8"/>
   </g>
   <g id="patch_29">
    <path d="M 649.042742 512.64 
L 669.300237 512.64 
L 669.300237 454.9824 
L 649.042742 454.9824 
z
" clip-path="url(#pb2ff15e64e)" style="fill: #e56c4e; opacity: 0.8"/>
   </g>
   <g id="patch_30">
    <path d="M 669.300237 512.64 
L 689.557731 512.64 
L 689.557731 477.1584 
L 669.300237 477.1584 
z
" clip-path="url(#pb2ff15e64e)" style="fill: #e66140; opacity: 0.8"/>
   </g>
   <g id="patch_31">
    <path d="M 689.557731 512.64 
L 709.815225 512.64 
L 709.815225 499.3344 
L 689.557731 499.3344 
z
" clip-path="url(#pb2ff15e64e)" style="fill: #e65732; opacity: 0.8"/>
   </g>
   <g id="patch_32">
    <path d="M 709.815225 512.64 
L 730.072719 512.64 
L 730.072719 499.3344 
L 709.815225 499.3344 
z
" clip-path="url(#pb2ff15e64e)" style="fill: #e74d26; opacity: 0.8"/>
   </g>
   <g id="matplotlib.axis_1">
    <g id="xtick_1">
     <g id="line2d_1">
      <path d="M 108 512.64 
L 108 69.12 
" clip-path="url(#pb2ff15e64e)" style="fill: none; stroke: #b0b0b0; stroke-opacity: 0.2; stroke-width: 0.8; stroke-linecap: square"/>
     </g>
     <g id="line2d_2">
      <defs>
       <path id="m94c2269969" d="M 0 0 
L 0 3.5 
" style="stroke: #000000; stroke-width: 0.8"/>
      </defs>
      <g>
       <use xlink:href="#m94c2269969" x="108" y="512.64" style="stroke: #000000; stroke-width: 0.8"/>
      </g>
     </g>
     <g id="text_1">
      <!-- −1.00 -->
      <g transform="translate(92.677344 527.238438) scale(0.1 -0.1)">
       <defs>
        <path id="DejaVuSans-2212" d="M 678 2272 
L 4684 2272 
L 4684 1741 
L 678 1741 
L 678 2272 
z
" transform="scale(0.015625)"/>
        <path id="DejaVuSans-31" d="M 794 531 
L 1825 531 
L 1825 4091 
L 703 3866 
L 703 4441 
L 1819 4666 
L 2450 4666 
L 2450 531 
L 3481 531 
L 3481 0 
L 794 0 
L 794 531 
z
" transform="scale(0.015625)"/>
        <path id="DejaVuSans-2e" d="M 684 794 
L 1344 794 
L 1344 0 
L 684 0 
L 684 794 
z
" transform="scale(0.015625)"/>
        <path id="DejaVuSans-30" d="M 2034 4250 
Q 1547 4250 1301 3770 
Q 1056 3291 1056 2328 
Q 1056 1369 1301 889 
Q 1547 409 2034 409 
Q 2525 409 2770 889 
Q 3016 1369 3016 2328 
Q 3016 3291 2770 3770 
Q 2525 4250 2034 4250 
z
M 2034 4750 
Q 2819 4750 3233 4129 
Q 3647 3509 3647 2328 
Q 3647 1150 3233 529 
Q 2819 -91 2034 -91 
Q 1250 -91 836 529 
Q 422 1150 422 2328 
Q 422 3509 836 4129 
Q 1250 4750 2034 4750 
z
" transform="scale(0.015625)"/>
       </defs>
       <use xlink:href="#DejaVuSans-2212"/>
       <use xlink:href="#DejaVuSans-31" transform="translate(83.789062 0)"/>
       <use xlink:href="#DejaVuSans-2e" transform="translate(147.412109 0)"/>
       <use xlink:href="#DejaVuSans-30" transform="translate(179.199219 0)"/>
       <use xlink:href="#DejaVuSans-30" transform="translate(242.822266 0)"/>
      </g>
     </g>
    </g>
    <g id="xtick_2">
     <g id="line2d_3">
      <path d="M 191.7 512.64 
L 191.7 69.12 
" clip-path="url(#pb2ff15e64e)" style="fill: none; stroke: #b0b0b0; stroke-opacity: 0.2; stroke-width: 0.8; stroke-linecap: square"/>
     </g>
     <g id="line2d_4">
      <g>
       <use xlink:href="#m94c2269969" x="191.7" y="512.64" style="stroke: #000000; stroke-width: 0.8"/>
      </g>
     </g>
     <g id="text_2">
      <!-- −0.75 -->
      <g transform="translate(176.377344 527.238438) scale(0.1 -0.1)">
       <defs>
        <path id="DejaVuSans-37" d="M 525 4666 
L 3525 4666 
L 3525 4397 
L 1831 0 
L 1172 0 
L 2766 4134 
L 525 4134 
L 525 4666 
z
" transform="scale(0.015625)"/>
        <path id="DejaVuSans-35" d="M 691 4666 
L 3169 4666 
L 3169 4134 
L 1269 4134 
L 1269 2991 
Q 1406 3038 1543 3061 
Q 1681 3084 1819 3084 
Q 2600 3084 3056 2656 
Q 3513 2228 3513 1497 
Q 3513 744 3044 326 
Q 2575 -91 1722 -91 
Q 1428 -91 1123 -41 
Q 819 9 494 109 
L 494 744 
Q 775 591 1075 516 
Q 1375 441 1709 441 
Q 2250 441 2565 725 
Q 2881 1009 2881 1497 
Q 2881 1984 2565 2268 
Q 2250 2553 1709 2553 
Q 1456 2553 1204 2497 
Q 953 2441 691 2322 
L 691 4666 
z
" transform="scale(0.015625)"/>
       </defs>
       <use xlink:href="#DejaVuSans-2212"/>
       <use xlink:href="#DejaVuSans-30" transform="translate(83.789062 0)"/>
       <use xlink:href="#DejaVuSans-2e" transform="translate(147.412109 0)"/>
       <use xlink:href="#DejaVuSans-37" transform="translate(179.199219 0)"/>
       <use xlink:href="#DejaVuSans-35" transform="translate(242.822266 0)"/>
      </g>
     </g>
    </g>
    <g id="xtick_3">
     <g id="line2d_5">
      <path d="M 275.4 512.64 
L 275.4 69.12 
" clip-path="url(#pb2ff15e64e)" style="fill: none; stroke: #b0b0b0; stroke-opacity: 0.2; stroke-width: 0.8; stroke-linecap: square"/>
     </g>
     <g id="line2d_6">
      <g>
       <use xlink:href="#m94c2269969" x="275.4" y="512.64" style="stroke: #000000; stroke-width: 0.8"/>
      </g>
     </g>
     <g id="text_3">
      <!-- −0.50 -->
      <g transform="translate(260.077344 527.238438) scale(0.1 -0.1)">
       <use xlink:href="#DejaVuSans-2212"/>
       <use xlink:href="#DejaVuSans-30" transform="translate(83.789062 0)"/>
       <use xlink:href="#DejaVuSans-2e" transform="translate(147.412109 0)"/>
       <use xlink:href="#DejaVuSans-35" transform="translate(179.199219 0)"/>
       <use xlink:href="#DejaVuSans-30" transform="translate(242.822266 0)"/>
      </g>
     </g>
    </g>
    <g id="xtick_4">
     <g id="line2d_7">
      <path d="M 359.1 512.64 
L 359.1 69.12 
" clip-path="url(#pb2ff15e64e)" style="fill: none; stroke: #b0b0b0; stroke-opacity: 0.2; stroke-width: 0.8; stroke-linecap: square"/>
     </g>
     <g id="line2d_8">
      <g>
       <use xlink:href="#m94c2269969" x="359.1" y="512.64" style="stroke: #000000; stroke-width: 0.8"/>
      </g>
     </g>
     <g id="text_4">
      <!-- −0.25 -->
      <g transform="translate(343.777344 527.238438) scale(0.1 -0.1)">
       <defs>
        <path id="DejaVuSans-32" d="M 1228 531 
L 3431 531 
L 3431 0 
L 469 0 
L 469 531 
Q 828 903 1448 1529 
Q 2069 2156 2228 2338 
Q 2531 2678 2651 2914 
Q 2772 3150 2772 3378 
Q 2772 3750 2511 3984 
Q 2250 4219 1831 4219 
Q 1534 4219 1204 4116 
Q 875 4013 500 3803 
L 500 4441 
Q 881 4594 1212 4672 
Q 1544 4750 1819 4750 
Q 2544 4750 2975 4387 
Q 3406 4025 3406 3419 
Q 3406 3131 3298 2873 
Q 3191 2616 2906 2266 
Q 2828 2175 2409 1742 
Q 1991 1309 1228 531 
z
" transform="scale(0.015625)"/>
       </defs>
       <use xlink:href="#DejaVuSans-2212"/>
       <use xlink:href="#DejaVuSans-30" transform="translate(83.789062 0)"/>
       <use xlink:href="#DejaVuSans-2e" transform="translate(147.412109 0)"/>
       <use xlink:href="#DejaVuSans-32" transform="translate(179.199219 0)"/>
       <use xlink:href="#DejaVuSans-35" transform="translate(242.822266 0)"/>
      </g>
     </g>
    </g>
    <g id="xtick_5">
     <g id="line2d_9">
      <path d="M 442.8 512.64 
L 442.8 69.12 
" clip-path="url(#pb2ff15e64e)" style="fill: none; stroke: #b0b0b0; stroke-opacity: 0.2; stroke-width: 0.8; stroke-linecap: square"/>
     </g>
     <g id="line2d_10">
      <g>
       <use xlink:href="#m94c2269969" x="442.8" y="512.64" style="stroke: #000000; stroke-width: 0.8"/>
      </g>
     </g>
     <g id="text_5">
      <!-- 0.00 -->
      <g transform="translate(431.667188 527.238438) scale(0.1 -0.1)">
       <use xlink:href="#DejaVuSans-30"/>
       <use xlink:href="#DejaVuSans-2e" transform="translate(63.623047 0)"/>
       <use xlink:href="#DejaVuSans-30" transform="translate(95.410156 0)"/>
       <use xlink:href="#DejaVuSans-30" transform="translate(159.033203 0)"/>
      </g>
     </g>
    </g>
    <g id="xtick_6">
     <g id="line2d_11">
      <path d="M 526.5 512.64 
L 526.5 69.12 
" clip-path="url(#pb2ff15e64e)" style="fill: none; stroke: #b0b0b0; stroke-opacity: 0.2; stroke-width: 0.8; stroke-linecap: square"/>
     </g>
     <g id="line2d_12">
      <g>
       <use xlink:href="#m94c2269969" x="526.5" y="512.64" style="stroke: #000000; stroke-width: 0.8"/>
      </g>
     </g>
     <g id="text_6">
      <!-- 0.25 -->
      <g transform="translate(515.367188 527.238438) scale(0.1 -0.1)">
       <use xlink:href="#DejaVuSans-30"/>
       <use xlink:href="#DejaVuSans-2e" transform="translate(63.623047 0)"/>
       <use xlink:href="#DejaVuSans-32" transform="translate(95.410156 0)"/>
       <use xlink:href="#DejaVuSans-35" transform="translate(159.033203 0)"/>
      </g>
     </g>
    </g>
    <g id="xtick_7">
     <g id="line2d_13">
      <path d="M 610.2 512.64 
L 610.2 69.12 
" clip-path="url(#pb2ff15e64e)" style="fill: none; stroke: #b0b0b0; stroke-opacity: 0.2; stroke-width: 0.8; stroke-linecap: square"/>
     </g>
     <g id="line2d_14">
      <g>
       <use xlink:href="#m94c2269969" x="610.2" y="512.64" style="stroke: #000000; stroke-width: 0.8"/>
      </g>
     </g>
     <g id="text_7">
      <!-- 0.50 -->
      <g transform="translate(599.067188 527.238438) scale(0.1 -0.1)">
       <use xlink:href="#DejaVuSans-30"/>
       <use xlink:href="#DejaVuSans-2e" transform="translate(63.623047 0)"/>
       <use xlink:href="#DejaVuSans-35" transform="translate(95.410156 0)"/>
       <use xlink:href="#DejaVuSans-30" transform="translate(159.033203 0)"/>
      </g>
     </g>
    </g>
    <g id="xtick_8">
     <g id="line2d_15">
      <path d="M 693.9 512.64 
L 693.9 69.12 
" clip-path="url(#pb2ff15e64e)" style="fill: none; stroke: #b0b0b0; stroke-opacity: 0.2; stroke-width: 0.8; stroke-linecap: square"/>
     </g>
     <g id="line2d_16">
      <g>
       <use xlink:href="#m94c2269969" x="693.9" y="512.64" style="stroke: #000000; stroke-width: 0.8"/>
      </g>
     </g>
     <g id="text_8">
      <!-- 0.75 -->
      <g transform="translate(682.767188 527.238438) scale(0.1 -0.1)">
       <use xlink:href="#DejaVuSans-30"/>
       <use xlink:href="#DejaVuSans-2e" transform="translate(63.623047 0)"/>
       <use xlink:href="#DejaVuSans-37" transform="translate(95.410156 0)"/>
       <use xlink:href="#DejaVuSans-35" transform="translate(159.033203 0)"/>
      </g>
     </g>
    </g>
    <g id="xtick_9">
     <g id="line2d_17">
      <path d="M 777.6 512.64 
L 777.6 69.12 
" clip-path="url(#pb2ff15e64e)" style="fill: none; stroke: #b0b0b0; stroke-opacity: 0.2; stroke-width: 0.8; stroke-linecap: square"/>
     </g>
     <g id="line2d_18">
      <g>
       <use xlink:href="#m94c2269969" x="777.6" y="512.64" style="stroke: #000000; stroke-width: 0.8"/>
      </g>
     </g>
     <g id="text_9">
      <!-- 1.00 -->
      <g transform="translate(766.467188 527.238438) scale(0.1 -0.1)">
       <use xlink:href="#DejaVuSans-31"/>
       <use xlink:href="#DejaVuSans-2e" transform="translate(63.623047 0)"/>
       <use xlink:href="#DejaVuSans-30" transform="translate(95.410156 0)"/>
       <use xlink:href="#DejaVuSans-30" transform="translate(159.033203 0)"/>
      </g>
     </g>
    </g>
   </g>
   <g id="matplotlib.axis_2">
    <g id="ytick_1">
     <g id="line2d_19">
      <path d="M 108 512.64 
L 777.6 512.64 
" clip-path="url(#pb2ff15e64e)" style="fill: none; stroke: #b0b0b0; stroke-opacity: 0.2; stroke-width: 0.8; stroke-linecap: square"/>
     </g>
     <g id="line2d_20">
      <defs>
       <path id="m362d77a8d4" d="M 0 0 
L -3.5 0 
" style="stroke: #000000; stroke-width: 0.8"/>
      </defs>
      <g>
       <use xlink:href="#m362d77a8d4" x="108" y="512.64" style="stroke: #000000; stroke-width: 0.8"/>
      </g>
     </g>
     <g id="text_10">
      <!-- 0 -->
      <g transform="translate(94.6375 516.439219) scale(0.1 -0.1)">
       <use xlink:href="#DejaVuSans-30"/>
      </g>
     </g>
    </g>
    <g id="ytick_2">
     <g id="line2d_21">
      <path d="M 108 423.936 
L 777.6 423.936 
" clip-path="url(#pb2ff15e64e)" style="fill: none; stroke: #b0b0b0; stroke-opacity: 0.2; stroke-width: 0.8; stroke-linecap: square"/>
     </g>
     <g id="line2d_22">
      <g>
       <use xlink:href="#m362d77a8d4" x="108" y="423.936" style="stroke: #000000; stroke-width: 0.8"/>
      </g>
     </g>
     <g id="text_11">
      <!-- 20 -->
      <g transform="translate(88.275 427.735219) scale(0.1 -0.1)">
       <use xlink:href="#DejaVuSans-32"/>
       <use xlink:href="#DejaVuSans-30" transform="translate(63.623047 0)"/>
      </g>
     </g>
    </g>
    <g id="ytick_3">
     <g id="line2d_23">
      <path d="M 108 335.232 
L 777.6 335.232 
" clip-path="url(#pb2ff15e64e)" style="fill: none; stroke: #b0b0b0; stroke-opacity: 0.2; stroke-width: 0.8; stroke-linecap: square"/>
     </g>
     <g id="line2d_24">
      <g>
       <use xlink:href="#m362d77a8d4" x="108" y="335.232" style="stroke: #000000; stroke-width: 0.8"/>
      </g>
     </g>
     <g id="text_12">
      <!-- 40 -->
      <g transform="translate(88.275 339.031219) scale(0.1 -0.1)">
       <defs>
        <path id="DejaVuSans-34" d="M 2419 4116 
L 825 1625 
L 2419 1625 
L 2419 4116 
z
M 2253 4666 
L 3047 4666 
L 3047 1625 
L 3713 1625 
L 3713 1100 
L 3047 1100 
L 3047 0 
L 2419 0 
L 2419 1100 
L 313 1100 
L 313 1709 
L 2253 4666 
z
" transform="scale(0.015625)"/>
       </defs>
       <use xlink:href="#DejaVuSans-34"/>
       <use xlink:href="#DejaVuSans-30" transform="translate(63.623047 0)"/>
      </g>
     </g>
    </g>
    <g id="ytick_4">
     <g id="line2d_25">
      <path d="M 108 246.528 
L 777.6 246.528 
" clip-path="url(#pb2ff15e64e)" style="fill: none; stroke: #b0b0b0; stroke-opacity: 0.2; stroke-width: 0.8; stroke-linecap: square"/>
     </g>
     <g id="line2d_26">
      <g>
       <use xlink:href="#m362d77a8d4" x="108" y="246.528" style="stroke: #000000; stroke-width: 0.8"/>
      </g>
     </g>
     <g id="text_13">
      <!-- 60 -->
      <g transform="translate(88.275 250.327219) scale(0.1 -0.1)">
       <defs>
        <path id="DejaVuSans-36" d="M 2113 2584 
Q 1688 2584 1439 2293 
Q 1191 2003 1191 1497 
Q 1191 994 1439 701 
Q 1688 409 2113 409 
Q 2538 409 2786 701 
Q 3034 994 3034 1497 
Q 3034 2003 2786 2293 
Q 2538 2584 2113 2584 
z
M 3366 4563 
L 3366 3988 
Q 3128 4100 2886 4159 
Q 2644 4219 2406 4219 
Q 1781 4219 1451 3797 
Q 1122 3375 1075 2522 
Q 1259 2794 1537 2939 
Q 1816 3084 2150 3084 
Q 2853 3084 3261 2657 
Q 3669 2231 3669 1497 
Q 3669 778 3244 343 
Q 2819 -91 2113 -91 
Q 1303 -91 875 529 
Q 447 1150 447 2328 
Q 447 3434 972 4092 
Q 1497 4750 2381 4750 
Q 2619 4750 2861 4703 
Q 3103 4656 3366 4563 
z
" transform="scale(0.015625)"/>
       </defs>
       <use xlink:href="#DejaVuSans-36"/>
       <use xlink:href="#DejaVuSans-30" transform="translate(63.623047 0)"/>
      </g>
     </g>
    </g>
    <g id="ytick_5">
     <g id="line2d_27">
      <path d="M 108 157.824 
L 777.6 157.824 
" clip-path="url(#pb2ff15e64e)" style="fill: none; stroke: #b0b0b0; stroke-opacity: 0.2; stroke-width: 0.8; stroke-linecap: square"/>
     </g>
     <g id="line2d_28">
      <g>
       <use xlink:href="#m362d77a8d4" x="108" y="157.824" style="stroke: #000000; stroke-width: 0.8"/>
      </g>
     </g>
     <g id="text_14">
      <!-- 80 -->
      <g transform="translate(88.275 161.623219) scale(0.1 -0.1)">
       <defs>
        <path id="DejaVuSans-38" d="M 2034 2216 
Q 1584 2216 1326 1975 
Q 1069 1734 1069 1313 
Q 1069 891 1326 650 
Q 1584 409 2034 409 
Q 2484 409 2743 651 
Q 3003 894 3003 1313 
Q 3003 1734 2745 1975 
Q 2488 2216 2034 2216 
z
M 1403 2484 
Q 997 2584 770 2862 
Q 544 3141 544 3541 
Q 544 4100 942 4425 
Q 1341 4750 2034 4750 
Q 2731 4750 3128 4425 
Q 3525 4100 3525 3541 
Q 3525 3141 3298 2862 
Q 3072 2584 2669 2484 
Q 3125 2378 3379 2068 
Q 3634 1759 3634 1313 
Q 3634 634 3220 271 
Q 2806 -91 2034 -91 
Q 1263 -91 848 271 
Q 434 634 434 1313 
Q 434 1759 690 2068 
Q 947 2378 1403 2484 
z
M 1172 3481 
Q 1172 3119 1398 2916 
Q 1625 2713 2034 2713 
Q 2441 2713 2670 2916 
Q 2900 3119 2900 3481 
Q 2900 3844 2670 4047 
Q 2441 4250 2034 4250 
Q 1625 4250 1398 4047 
Q 1172 3844 1172 3481 
z
" transform="scale(0.015625)"/>
       </defs>
       <use xlink:href="#DejaVuSans-38"/>
       <use xlink:href="#DejaVuSans-30" transform="translate(63.623047 0)"/>
      </g>
     </g>
    </g>
    <g id="ytick_6">
     <g id="line2d_29">
      <path d="M 108 69.12 
L 777.6 69.12 
" clip-path="url(#pb2ff15e64e)" style="fill: none; stroke: #b0b0b0; stroke-opacity: 0.2; stroke-width: 0.8; stroke-linecap: square"/>
     </g>
     <g id="line2d_30">
      <g>
       <use xlink:href="#m362d77a8d4" x="108" y="69.12" style="stroke: #000000; stroke-width: 0.8"/>
      </g>
     </g>
     <g id="text_15">
      <!-- 100 -->
      <g transform="translate(81.9125 72.919219) scale(0.1 -0.1)">
       <use xlink:href="#DejaVuSans-31"/>
       <use xlink:href="#DejaVuSans-30" transform="translate(63.623047 0)"/>
       <use xlink:href="#DejaVuSans-30" transform="translate(127.246094 0)"/>
      </g>
     </g>
    </g>
   </g>
   <g id="patch_33">
    <path d="M 108 512.64 
L 108 69.12 
" style="fill: none; stroke: #000000; stroke-width: 0.8; stroke-linejoin: miter; stroke-linecap: square"/>
   </g>
   <g id="patch_34">
    <path d="M 777.6 512.64 
L 777.6 69.12 
" style="fill: none; stroke: #000000; stroke-width: 0.8; stroke-linejoin: miter; stroke-linecap: square"/>
   </g>
   <g id="patch_35">
    <path d="M 108 512.64 
L 777.6 512.64 
" style="fill: none; stroke: #000000; stroke-width: 0.8; stroke-linejoin: miter; stroke-linecap: square"/>
   </g>
   <g id="patch_36">
    <path d="M 108 69.12 
L 777.6 69.12 
" style="fill: none; stroke: #000000; stroke-width: 0.8; stroke-linejoin: miter; stroke-linecap: square"/>
   </g>
  </g>
 </g>
 <defs>
  <clipPath id="pb2ff15e64e">
   <rect x="108" y="69.12" width="669.6" height="443.52"/>
  </clipPath>
 </defs>
</svg>
