<?xml version="1.0" encoding="utf-8" standalone="no"?>
<!DOCTYPE svg PUBLIC "-//W3C//DTD SVG 1.1//EN"
  "http://www.w3.org/Graphics/SVG/1.1/DTD/svg11.dtd">
<svg xmlns:xlink="http://www.w3.org/1999/xlink" width="864pt" height="576pt" viewBox="0 0 864 576" xmlns="http://www.w3.org/2000/svg" version="1.1">
 <metadata>
  <rdf:RDF xmlns:dc="http://purl.org/dc/elements/1.1/" xmlns:cc="http://creativecommons.org/ns#" xmlns:rdf="http://www.w3.org/1999/02/22-rdf-syntax-ns#">
   <cc:Work>
    <dc:type rdf:resource="http://purl.org/dc/dcmitype/StillImage"/>
    <dc:date>1980-01-01T00:00:00+00:00</dc:date>
    <dc:format>image/svg+xml</dc:format>
    <dc:creator>
     <cc:Agent>
      <dc:title>Matplotlib v3.10.8, https://matplotlib.org/</dc:title>
     </cc:Agent>
    </dc:creator>
   </cc:Work>
  </rdf:RDF>
 </metadata>
 <defs>
  <style type="text/css">*{stroke-linejoin: round; stroke-linecap: butt}</style>
 </defs>
 <g id="figure_1">
  <g id="patch_1">
   <path d="M 0 576 
L 864 576 
L 864 0 
L 0 0 
L 0 576 
z
" style="fill: none"/>
  </g>
  <g id="axes_1">
   <g id="patch_2">
    <path d="M 108 512.64 
L 777.6 512.64 
L 777.6 69.12 
L 108 69.12 
L 108 512.64 
z
" style="fill: none"/>
   </g>
   <g id="PathCollection_1">
    <defs>
     <path id="m7832c712c4" d="M 0 3 
C 0.795609 3 1.55874 2.683901 2.12132 2.12132 
C 2.683901 1.55874 3 0.795609 3 0 
C 3 -0.795609 2.683901 -1.55874 2.12132 -2.12132 
C 1.55874 -2.683901 0.795609 -3 0 -3 
C -0.795609 -3 -1.55874 -2.683901 -2.12132 -2.12132 
C -2.683901 -1.55874 -3 -0.795609 -3 0 
C -3 0.795609 -2.683901 1.55874 -2.12132 2.12132 
C -1.55874 2.683901 -0.795609 3 0 3 
z
" style="stroke: #0b0033"/>
    </defs>
    <g clip-path="url(#p51a652a0bf)">
     <use xlink:href="#m7832c712c4" x="335.37754" y="223.302876" style="fill: #0b0033; stroke: #0b0033"/>
     <use xlink:href="#m7832c712c4" x="245.858824" y="158.72402" style="fill: #0b0033; stroke: #0b0033"/>
     <use xlink:href="#m7832c712c4" x="389.08877" y="276.46757" style="fill: #0b0033; stroke: #0b0033"/>
     <use xlink:href="#m7832c712c4" x="532.318717" y="179.002959" style="fill: #0b0033; stroke: #0b0033"/>
     <use xlink:href="#m7832c712c4" x="317.473797" y="100.593424" style="fill: #0b0033; stroke: #0b0033"/>
     <use xlink:href="#m7832c712c4" x="442.8" y="273.423087" style="fill: #0b0033; stroke: #0b0033"/>
     <use xlink:href="#m7832c712c4" x="424.896257" y="171.405515" style="fill: #0b0033; stroke: #0b0033"/>
     <use xlink:href="#m7832c712c4" x="371.185027" y="293.970207" style="fill: #0b0033; stroke: #0b0033"/>
     <use xlink:href="#m7832c712c4" x="389.08877" y="230.172231" style="fill: #0b0033; stroke: #0b0033"/>
     <use xlink:href="#m7832c712c4" x="514.414973" y="89.28" style="fill: #0b0033; stroke: #0b0033"/>
     <use xlink:href="#m7832c712c4" x="353.281283" y="223.980565" style="fill: #0b0033; stroke: #0b0033"/>
     <use xlink:href="#m7832c712c4" x="460.703743" y="250.083232" style="fill: #0b0033; stroke: #0b0033"/>
     <use xlink:href="#m7832c712c4" x="371.185027" y="340.874688" style="fill: #0b0033; stroke: #0b0033"/>
     <use xlink:href="#m7832c712c4" x="442.8" y="176.826664" style="fill: #0b0033; stroke: #0b0033"/>
     <use xlink:href="#m7832c712c4" x="263.762567" y="294.368066" style="fill: #0b0033; stroke: #0b0033"/>
     <use xlink:href="#m7832c712c4" x="353.281283" y="343.893972" style="fill: #0b0033; stroke: #0b0033"/>
     <use xlink:href="#m7832c712c4" x="245.858824" y="371.567471" style="fill: #0b0033; stroke: #0b0033"/>
     <use xlink:href="#m7832c712c4" x="210.051337" y="354.098617" style="fill: #0b0033; stroke: #0b0033"/>
     <use xlink:href="#m7832c712c4" x="639.741176" y="236.670338" style="fill: #0b0033; stroke: #0b0033"/>
     <use xlink:href="#m7832c712c4" x="317.473797" y="225.079105" style="fill: #0b0033; stroke: #0b0033"/>
     <use xlink:href="#m7832c712c4" x="424.896257" y="386.724345" style="fill: #0b0033; stroke: #0b0033"/>
     <use xlink:href="#m7832c712c4" x="514.414973" y="175.824569" style="fill: #0b0033; stroke: #0b0033"/>
     <use xlink:href="#m7832c712c4" x="263.762567" y="311.237281" style="fill: #0b0033; stroke: #0b0033"/>
     <use xlink:href="#m7832c712c4" x="317.473797" y="179.858578" style="fill: #0b0033; stroke: #0b0033"/>
     <use xlink:href="#m7832c712c4" x="639.741176" y="333.708028" style="fill: #0b0033; stroke: #0b0033"/>
     <use xlink:href="#m7832c712c4" x="424.896257" y="331.183783" style="fill: #0b0033; stroke: #0b0033"/>
     <use xlink:href="#m7832c712c4" x="263.762567" y="153.700975" style="fill: #0b0033; stroke: #0b0033"/>
     <use xlink:href="#m7832c712c4" x="353.281283" y="436.996489" style="fill: #0b0033; stroke: #0b0033"/>
     <use xlink:href="#m7832c712c4" x="353.281283" y="406.182368" style="fill: #0b0033; stroke: #0b0033"/>
     <use xlink:href="#m7832c712c4" x="747.163636" y="232.506529" style="fill: #0b0033; stroke: #0b0033"/>
     <use xlink:href="#m7832c712c4" x="693.452406" y="189.289702" style="fill: #0b0033; stroke: #0b0033"/>
     <use xlink:href="#m7832c712c4" x="281.66631" y="332.6876" style="fill: #0b0033; stroke: #0b0033"/>
     <use xlink:href="#m7832c712c4" x="281.66631" y="346.979229" style="fill: #0b0033; stroke: #0b0033"/>
     <use xlink:href="#m7832c712c4" x="245.858824" y="344.183736" style="fill: #0b0033; stroke: #0b0033"/>
     <use xlink:href="#m7832c712c4" x="406.992513" y="389.284887" style="fill: #0b0033; stroke: #0b0033"/>
     <use xlink:href="#m7832c712c4" x="389.08877" y="127.834914" style="fill: #0b0033; stroke: #0b0033"/>
     <use xlink:href="#m7832c712c4" x="371.185027" y="404.478304" style="fill: #0b0033; stroke: #0b0033"/>
     <use xlink:href="#m7832c712c4" x="335.37754" y="297.947809" style="fill: #0b0033; stroke: #0b0033"/>
     <use xlink:href="#m7832c712c4" x="156.340107" y="240.429421" style="fill: #0b0033; stroke: #0b0033"/>
     <use xlink:href="#m7832c712c4" x="138.436364" y="492.48" style="fill: #0b0033; stroke: #0b0033"/>
     <use xlink:href="#m7832c712c4" x="371.185027" y="173.31602" style="fill: #0b0033; stroke: #0b0033"/>
     <use xlink:href="#m7832c712c4" x="424.896257" y="461.956226" style="fill: #0b0033; stroke: #0b0033"/>
     <use xlink:href="#m7832c712c4" x="281.66631" y="429.410204" style="fill: #0b0033; stroke: #0b0033"/>
     <use xlink:href="#m7832c712c4" x="371.185027" y="338.930033" style="fill: #0b0033; stroke: #0b0033"/>
     <use xlink:href="#m7832c712c4" x="192.147594" y="377.420078" style="fill: #0b0033; stroke: #0b0033"/>
     <use xlink:href="#m7832c712c4" x="156.340107" y="209.395494" style="fill: #0b0033; stroke: #0b0033"/>
     <use xlink:href="#m7832c712c4" x="353.281283" y="370.889659" style="fill: #0b0033; stroke: #0b0033"/>
     <use xlink:href="#m7832c712c4" x="210.051337" y="336.726637" style="fill: #0b0033; stroke: #0b0033"/>
     <use xlink:href="#m7832c712c4" x="317.473797" y="235.236049" style="fill: #0b0033; stroke: #0b0033"/>
     <use xlink:href="#m7832c712c4" x="317.473797" y="215.550617" style="fill: #0b0033; stroke: #0b0033"/>
     <use xlink:href="#m7832c712c4" x="210.051337" y="486.096579" style="fill: #0b0033; stroke: #0b0033"/>
    </g>
   </g>
   <g id="matplotlib.axis_1">
    <g id="xtick_1">
     <g id="line2d_1">
      <path d="M 192.147594 512.64 
L 192.147594 69.12 
" clip-path="url(#p51a652a0bf)" style="fill: none; stroke: #b0b0b0; stroke-opacity: 0.2; stroke-width: 0.8; stroke-linecap: square"/>
     </g>
     <g id="line2d_2">
      <defs>
       <path id="m73483a6aff" d="M 0 0 
L 0 3.5 
" style="stroke: #000000; stroke-width: 0.8"/>
      </defs>
      <g>
       <use xlink:href="#m73483a6aff" x="192.147594" y="512.64" style="stroke: #000000; stroke-width: 0.8"/>
      </g>
     </g>
     <g id="text_1">
      <!-- 5 -->
      <g transform="translate(188.966344 527.238438) scale(0.1 -0.1)">
       <defs>
        <path id="DejaVuSans-35" d="M 691 4666 
L 3169 4666 
L 3169 4134 
L 1269 4134 
L 1269 2991 
Q 1406 3038 1543 3061 
Q 1681 3084 1819 3084 
Q 2600 3084 3056 2656 
Q 3513 2228 3513 1497 
Q 3513 744 3044 326 
Q 2575 -91 1722 -91 
Q 1428 -91 1123 -41 
Q 819 9 494 109 
L 494 744 
Q 775 591 1075 516 
Q 1375 441 1709 441 
Q 2250 441 2565 725 
Q 2881 1009 2881 1497 
Q 2881 1984 2565 2268 
Q 2250 2553 1709 2553 
Q 1456 2553 1204 2497 
Q 953 2441 691 2322 
L 691 4666 
z
" transform="scale(0.015625)"/>
       </defs>
       <use xlink:href="#DejaVuSans-35"/>
      </g>
     </g>
    </g>
    <g id="xtick_2">
     <g id="line2d_3">
      <path d="M 281.66631 512.64 
L 281.66631 69.12 
" clip-path="url(#p51a652a0bf)" style="fill: none; stroke: #b0b0b0; stroke-opacity: 0.2; stroke-width: 0.8; stroke-linecap: square"/>
     </g>
     <g id="line2d_4">
      <g>
       <use xlink:href="#m73483a6aff" x="281.66631" y="512.64" style="stroke: #000000; stroke-width: 0.8"/>
      </g>
     </g>
     <g id="text_2">
      <!-- 10 -->
      <g transform="translate(275.30381 527.238438) scale(0.1 -0.1)">
       <defs>
        <path id="DejaVuSans-31" d="M 794 531 
L 1825 531 
L 1825 4091 
L 703 3866 
L 703 4441 
L 1819 4666 
L 2450 4666 
L 2450 531 
L 3481 531 
L 3481 0 
L 794 0 
L 794 531 
z
" transform="scale(0.015625)"/>
        <path id="DejaVuSans-30" d="M 2034 4250 
Q 1547 4250 1301 3770 
Q 1056 3291 1056 2328 
Q 1056 1369 1301 889 
Q 1547 409 2034 409 
Q 2525 409 2770 889 
Q 3016 1369 3016 2328 
Q 3016 3291 2770 3770 
Q 2525 4250 2034 4250 
z
M 2034 4750 
Q 2819 4750 3233 4129 
Q 3647 3509 3647 2328 
Q 3647 1150 3233 529 
Q 2819 -91 2034 -91 
Q 1250 -91 836 529 
Q 422 1150 422 2328 
Q 422 3509 836 4129 
Q 1250 4750 2034 4750 
z
" transform="scale(0.015625)"/>
       </defs>
       <use xlink:href="#DejaVuSans-31"/>
       <use xlink:href="#DejaVuSans-30" transform="translate(63.623047 0)"/>
      </g>
     </g>
    </g>
    <g id="xtick_3">
     <g id="line2d_5">
      <path d="M 371.185027 512.64 
L 371.185027 69.12 
" clip-path="url(#p51a652a0bf)" style="fill: none; stroke: #b0b0b0; stroke-opacity: 0.2; stroke-width: 0.8; stroke-linecap: square"/>
     </g>
     <g id="line2d_6">
      <g>
       <use xlink:href="#m73483a6aff" x="371.185027" y="512.64" style="stroke: #000000; stroke-width: 0.8"/>
      </g>
     </g>
     <g id="text_3">
      <!-- 15 -->
      <g transform="translate(364.822527 527.238438) scale(0.1 -0.1)">
       <use xlink:href="#DejaVuSans-31"/>
       <use xlink:href="#DejaVuSans-35" transform="translate(63.623047 0)"/>
      </g>
     </g>
    </g>
    <g id="xtick_4">
     <g id="line2d_7">
      <path d="M 460.703743 512.64 
L 460.703743 69.12 
" clip-path="url(#p51a652a0bf)" style="fill: none; stroke: #b0b0b0; stroke-opacity: 0.2; stroke-width: 0.8; stroke-linecap: square"/>
     </g>
     <g id="line2d_8">
      <g>
       <use xlink:href="#m73483a6aff" x="460.703743" y="512.64" style="stroke: #000000; stroke-width: 0.8"/>
      </g>
     </g>
     <g id="text_4">
      <!-- 20 -->
      <g transform="translate(454.341243 527.238438) scale(0.1 -0.1)">
       <defs>
        <path id="DejaVuSans-32" d="M 1228 531 
L 3431 531 
L 3431 0 
L 469 0 
L 469 531 
Q 828 903 1448 1529 
Q 2069 2156 2228 2338 
Q 2531 2678 2651 2914 
Q 2772 3150 2772 3378 
Q 2772 3750 2511 3984 
Q 2250 4219 1831 4219 
Q 1534 4219 1204 4116 
Q 875 4013 500 3803 
L 500 4441 
Q 881 4594 1212 4672 
Q 1544 4750 1819 4750 
Q 2544 4750 2975 4387 
Q 3406 4025 3406 3419 
Q 3406 3131 3298 2873 
Q 3191 2616 2906 2266 
Q 2828 2175 2409 1742 
Q 1991 1309 1228 531 
z
" transform="scale(0.015625)"/>
       </defs>
       <use xlink:href="#DejaVuSans-32"/>
       <use xlink:href="#DejaVuSans-30" transform="translate(63.623047 0)"/>
      </g>
     </g>
    </g>
    <g id="xtick_5">
     <g id="line2d_9">
      <path d="M 550.22246 512.64 
L 550.22246 69.12 
" clip-path="url(#p51a652a0bf)" style="fill: none; stroke: #b0b0b0; stroke-opacity: 0.2; stroke-width: 0.8; stroke-linecap: square"/>
     </g>
     <g id="line2d_10">
      <g>
       <use xlink:href="#m73483a6aff" x="550.22246" y="512.64" style="stroke: #000000; stroke-width: 0.8"/>
      </g>
     </g>
     <g id="text_5">
      <!-- 25 -->
      <g transform="translate(543.85996 527.238438) scale(0.1 -0.1)">
       <use xlink:href="#DejaVuSans-32"/>
       <use xlink:href="#DejaVuSans-35" transform="translate(63.623047 0)"/>
      </g>
     </g>
    </g>
    <g id="xtick_6">
     <g id="line2d_11">
      <path d="M 639.741176 512.64 
L 639.741176 69.12 
" clip-path="url(#p51a652a0bf)" style="fill: none; stroke: #b0b0b0; stroke-opacity: 0.2; stroke-width: 0.8; stroke-linecap: square"/>
     </g>
     <g id="line2d_12">
      <g>
       <use xlink:href="#m73483a6aff" x="639.741176" y="512.64" style="stroke: #000000; stroke-width: 0.8"/>
      </g>
     </g>
     <g id="text_6">
      <!-- 30 -->
      <g transform="translate(633.378676 527.238438) scale(0.1 -0.1)">
       <defs>
        <path id="DejaVuSans-33" d="M 2597 2516 
Q 3050 2419 3304 2112 
Q 3559 1806 3559 1356 
Q 3559 666 3084 287 
Q 2609 -91 1734 -91 
Q 1441 -91 1130 -33 
Q 819 25 488 141 
L 488 750 
Q 750 597 1062 519 
Q 1375 441 1716 441 
Q 2309 441 2620 675 
Q 2931 909 2931 1356 
Q 2931 1769 2642 2001 
Q 2353 2234 1838 2234 
L 1294 2234 
L 1294 2753 
L 1863 2753 
Q 2328 2753 2575 2939 
Q 2822 3125 2822 3475 
Q 2822 3834 2567 4026 
Q 2313 4219 1838 4219 
Q 1578 4219 1281 4162 
Q 984 4106 628 3988 
L 628 4550 
Q 988 4650 1302 4700 
Q 1616 4750 1894 4750 
Q 2613 4750 3031 4423 
Q 3450 4097 3450 3541 
Q 3450 3153 3228 2886 
Q 3006 2619 2597 2516 
z
" transform="scale(0.015625)"/>
       </defs>
       <use xlink:href="#DejaVuSans-33"/>
       <use xlink:href="#DejaVuSans-30" transform="translate(63.623047 0)"/>
      </g>
     </g>
    </g>
    <g id="xtick_7">
     <g id="line2d_13">
      <path d="M 729.259893 512.64 
L 729.259893 69.12 
" clip-path="url(#p51a652a0bf)" style="fill: none; stroke: #b0b0b0; stroke-opacity: 0.2; stroke-width: 0.8; stroke-linecap: square"/>
     </g>
     <g id="line2d_14">
      <g>
       <use xlink:href="#m73483a6aff" x="729.259893" y="512.64" style="stroke: #000000; stroke-width: 0.8"/>
      </g>
     </g>
     <g id="text_7">
      <!-- 35 -->
      <g transform="translate(722.897393 527.238438) scale(0.1 -0.1)">
       <use xlink:href="#DejaVuSans-33"/>
       <use xlink:href="#DejaVuSans-35" transform="translate(63.623047 0)"/>
      </g>
     </g>
    </g>
   </g>
   <g id="matplotlib.axis_2">
    <g id="ytick_1">
     <g id="line2d_15">
      <path d="M 108 484.393924 
L 777.6 484.393924 
" clip-path="url(#p51a652a0bf)" style="fill: none; stroke: #b0b0b0; stroke-opacity: 0.2; stroke-width: 0.8; stroke-linecap: square"/>
     </g>
     <g id="line2d_16">
      <defs>
       <path id="mc99f8f4d22" d="M 0 0 
L -3.5 0 
" style="stroke: #000000; stroke-width: 0.8"/>
      </defs>
      <g>
       <use xlink:href="#mc99f8f4d22" x="108" y="484.393924" style="stroke: #000000; stroke-width: 0.8"/>
      </g>
     </g>
     <g id="text_8">
      <!-- 16 -->
      <g transform="translate(88.275 488.193143) scale(0.1 -0.1)">
       <defs>
        <path id="DejaVuSans-36" d="M 2113 2584 
Q 1688 2584 1439 2293 
Q 1191 2003 1191 1497 
Q 1191 994 1439 701 
Q 1688 409 2113 409 
Q 2538 409 2786 701 
Q 3034 994 3034 1497 
Q 3034 2003 2786 2293 
Q 2538 2584 2113 2584 
z
M 3366 4563 
L 3366 3988 
Q 3128 4100 2886 4159 
Q 2644 4219 2406 4219 
Q 1781 4219 1451 3797 
Q 1122 3375 1075 2522 
Q 1259 2794 1537 2939 
Q 1816 3084 2150 3084 
Q 2853 3084 3261 2657 
Q 3669 2231 3669 1497 
Q 3669 778 3244 343 
Q 2819 -91 2113 -91 
Q 1303 -91 875 529 
Q 447 1150 447 2328 
Q 447 3434 972 4092 
Q 1497 4750 2381 4750 
Q 2619 4750 2861 4703 
Q 3103 4656 3366 4563 
z
" transform="scale(0.015625)"/>
       </defs>
       <use xlink:href="#DejaVuSans-31"/>
       <use xlink:href="#DejaVuSans-36" transform="translate(63.623047 0)"/>
      </g>
     </g>
    </g>
    <g id="ytick_2">
     <g id="line2d_17">
      <path d="M 108 420.102871 
L 777.6 420.102871 
" clip-path="url(#p51a652a0bf)" style="fill: none; stroke: #b0b0b0; stroke-opacity: 0.2; stroke-width: 0.8; stroke-linecap: square"/>
     </g>
     <g id="line2d_18">
      <g>
       <use xlink:href="#mc99f8f4d22" x="108" y="420.102871" style="stroke: #000000; stroke-width: 0.8"/>
      </g>
     </g>
     <g id="text_9">
      <!-- 18 -->
      <g transform="translate(88.275 423.90209) scale(0.1 -0.1)">
       <defs>
        <path id="DejaVuSans-38" d="M 2034 2216 
Q 1584 2216 1326 1975 
Q 1069 1734 1069 1313 
Q 1069 891 1326 650 
Q 1584 409 2034 409 
Q 2484 409 2743 651 
Q 3003 894 3003 1313 
Q 3003 1734 2745 1975 
Q 2488 2216 2034 2216 
z
M 1403 2484 
Q 997 2584 770 2862 
Q 544 3141 544 3541 
Q 544 4100 942 4425 
Q 1341 4750 2034 4750 
Q 2731 4750 3128 4425 
Q 3525 4100 3525 3541 
Q 3525 3141 3298 2862 
Q 3072 2584 2669 2484 
Q 3125 2378 3379 2068 
Q 3634 1759 3634 1313 
Q 3634 634 3220 271 
Q 2806 -91 2034 -91 
Q 1263 -91 848 271 
Q 434 634 434 1313 
Q 434 1759 690 2068 
Q 947 2378 1403 2484 
z
M 1172 3481 
Q 1172 3119 1398 2916 
Q 1625 2713 2034 2713 
Q 2441 2713 2670 2916 
Q 2900 3119 2900 3481 
Q 2900 3844 2670 4047 
Q 2441 4250 2034 4250 
Q 1625 4250 1398 4047 
Q 1172 3844 1172 3481 
z
" transform="scale(0.015625)"/>
       </defs>
       <use xlink:href="#DejaVuSans-31"/>
       <use xlink:href="#DejaVuSans-38" transform="translate(63.623047 0)"/>
      </g>
     </g>
    </g>
    <g id="ytick_3">
     <g id="line2d_19">
      <path d="M 108 355.811817 
L 777.6 355.811817 
" clip-path="url(#p51a652a0bf)" style="fill: none; stroke: #b0b0b0; stroke-opacity: 0.2; stroke-width: 0.8; stroke-linecap: square"/>
     </g>
     <g id="line2d_20">
      <g>
       <use xlink:href="#mc99f8f4d22" x="108" y="355.811817" style="stroke: #000000; stroke-width: 0.8"/>
      </g>
     </g>
     <g id="text_10">
      <!-- 20 -->
      <g transform="translate(88.275 359.611036) scale(0.1 -0.1)">
       <use xlink:href="#DejaVuSans-32"/>
       <use xlink:href="#DejaVuSans-30" transform="translate(63.623047 0)"/>
      </g>
     </g>
    </g>
    <g id="ytick_4">
     <g id="line2d_21">
      <path d="M 108 291.520764 
L 777.6 291.520764 
" clip-path="url(#p51a652a0bf)" style="fill: none; stroke: #b0b0b0; stroke-opacity: 0.2; stroke-width: 0.8; stroke-linecap: square"/>
     </g>
     <g id="line2d_22">
      <g>
       <use xlink:href="#mc99f8f4d22" x="108" y="291.520764" style="stroke: #000000; stroke-width: 0.8"/>
      </g>
     </g>
     <g id="text_11">
      <!-- 22 -->
      <g transform="translate(88.275 295.319983) scale(0.1 -0.1)">
       <use xlink:href="#DejaVuSans-32"/>
       <use xlink:href="#DejaVuSans-32" transform="translate(63.623047 0)"/>
      </g>
     </g>
    </g>
    <g id="ytick_5">
     <g id="line2d_23">
      <path d="M 108 227.229711 
L 777.6 227.229711 
" clip-path="url(#p51a652a0bf)" style="fill: none; stroke: #b0b0b0; stroke-opacity: 0.2; stroke-width: 0.8; stroke-linecap: square"/>
     </g>
     <g id="line2d_24">
      <g>
       <use xlink:href="#mc99f8f4d22" x="108" y="227.229711" style="stroke: #000000; stroke-width: 0.8"/>
      </g>
     </g>
     <g id="text_12">
      <!-- 24 -->
      <g transform="translate(88.275 231.028929) scale(0.1 -0.1)">
       <defs>
        <path id="DejaVuSans-34" d="M 2419 4116 
L 825 1625 
L 2419 1625 
L 2419 4116 
z
M 2253 4666 
L 3047 4666 
L 3047 1625 
L 3713 1625 
L 3713 1100 
L 3047 1100 
L 3047 0 
L 2419 0 
L 2419 1100 
L 313 1100 
L 313 1709 
L 2253 4666 
z
" transform="scale(0.015625)"/>
       </defs>
       <use xlink:href="#DejaVuSans-32"/>
       <use xlink:href="#DejaVuSans-34" transform="translate(63.623047 0)"/>
      </g>
     </g>
    </g>
    <g id="ytick_6">
     <g id="line2d_25">
      <path d="M 108 162.938657 
L 777.6 162.938657 
" clip-path="url(#p51a652a0bf)" style="fill: none; stroke: #b0b0b0; stroke-opacity: 0.2; stroke-width: 0.8; stroke-linecap: square"/>
     </g>
     <g id="line2d_26">
      <g>
       <use xlink:href="#mc99f8f4d22" x="108" y="162.938657" style="stroke: #000000; stroke-width: 0.8"/>
      </g>
     </g>
     <g id="text_13">
      <!-- 26 -->
      <g transform="translate(88.275 166.737876) scale(0.1 -0.1)">
       <use xlink:href="#DejaVuSans-32"/>
       <use xlink:href="#DejaVuSans-36" transform="translate(63.623047 0)"/>
      </g>
     </g>
    </g>
    <g id="ytick_7">
     <g id="line2d_27">
      <path d="M 108 98.647604 
L 777.6 98.647604 
" clip-path="url(#p51a652a0bf)" style="fill: none; stroke: #b0b0b0; stroke-opacity: 0.2; stroke-width: 0.8; stroke-linecap: square"/>
     </g>
     <g id="line2d_28">
      <g>
       <use xlink:href="#mc99f8f4d22" x="108" y="98.647604" style="stroke: #000000; stroke-width: 0.8"/>
      </g>
     </g>
     <g id="text_14">
      <!-- 28 -->
      <g transform="translate(88.275 102.446822) scale(0.1 -0.1)">
       <use xlink:href="#DejaVuSans-32"/>
       <use xlink:href="#DejaVuSans-38" transform="translate(63.623047 0)"/>
      </g>
     </g>
    </g>
   </g>
   <g id="line2d_29">
    <path d="M 335.37754 291.448412 
L 245.858824 311.829377 
L 389.08877 279.219833 
L 532.318717 246.61029 
L 317.473797 295.524605 
L 442.8 266.991255 
L 424.896257 271.067448 
L 371.185027 283.296026 
L 389.08877 279.219833 
L 514.414973 250.686483 
L 353.281283 287.372219 
L 460.703743 262.915062 
L 371.185027 283.296026 
L 442.8 266.991255 
L 263.762567 307.753184 
L 353.281283 287.372219 
L 245.858824 311.829377 
L 210.051337 319.981763 
L 639.741176 222.153132 
L 317.473797 295.524605 
L 424.896257 271.067448 
L 514.414973 250.686483 
L 263.762567 307.753184 
L 317.473797 295.524605 
L 639.741176 222.153132 
L 424.896257 271.067448 
L 263.762567 307.753184 
L 353.281283 287.372219 
L 353.281283 287.372219 
L 747.163636 197.695974 
L 693.452406 209.924553 
L 281.66631 303.676991 
L 281.66631 303.676991 
L 245.858824 311.829377 
L 406.992513 275.143641 
L 389.08877 279.219833 
L 371.185027 283.296026 
L 335.37754 291.448412 
L 156.340107 332.210342 
L 138.436364 336.286535 
L 371.185027 283.296026 
L 424.896257 271.067448 
L 281.66631 303.676991 
L 371.185027 283.296026 
L 192.147594 324.057956 
L 156.340107 332.210342 
L 353.281283 287.372219 
L 210.051337 319.981763 
L 317.473797 295.524605 
L 317.473797 295.524605 
L 210.051337 319.981763 
" clip-path="url(#p51a652a0bf)" style="fill: none; stroke: #ce8964; stroke-width: 1.5; stroke-linecap: square"/>
   </g>
   <g id="patch_3">
    <path d="M 108 512.64 
L 108 69.12 
" style="fill: none; stroke: #000000; stroke-width: 0.8; stroke-linejoin: miter; stroke-linecap: square"/>
   </g>
   <g id="patch_4">
    <path d="M 777.6 512.64 
L 777.6 69.12 
" style="fill: none; stroke: #000000; stroke-width: 0.8; stroke-linejoin: miter; stroke-linecap: square"/>
   </g>
   <g id="patch_5">
    <path d="M 108 512.64 
L 777.6 512.64 
" style="fill: none; stroke: #000000; stroke-width: 0.8; stroke-linejoin: miter; stroke-linecap: square"/>
   </g>
   <g id="patch_6">
    <path d="M 108 69.12 
L 777.6 69.12 
" style="fill: none; stroke: #000000; stroke-width: 0.8; stroke-linejoin: miter; stroke-linecap: square"/>
   </g>
  </g>
 </g>
 <defs>
  <clipPath id="p51a652a0bf">
   <rect x="108" y="69.12" width="669.6" height="443.52"/>
  </clipPath>
 </defs>
</svg>
