<?xml version="1.0" encoding="utf-8" standalone="no"?>
<!DOCTYPE svg PUBLIC "-//W3C//DTD SVG 1.1//EN"
  "http://www.w3.org/Graphics/SVG/1.1/DTD/svg11.dtd">
<svg xmlns:xlink="http://www.w3.org/1999/xlink" width="460.8pt" height="345.6pt" viewBox="0 0 460.8 345.6" xmlns="http://www.w3.org/2000/svg" version="1.1">
 <metadata>
  <rdf:RDF xmlns:dc="http://purl.org/dc/elements/1.1/" xmlns:cc="http://creativecommons.org/ns#" xmlns:rdf="http://www.w3.org/1999/02/22-rdf-syntax-ns#">
   <cc:Work>
    <dc:type rdf:resource="http://purl.org/dc/dcmitype/StillImage"/>
    <dc:date>2026-03-11T11:33:52.636978</dc:date>
    <dc:format>image/svg+xml</dc:format>
    <dc:creator>
     <cc:Agent>
      <dc:title>Matplotlib v3.10.8, https://matplotlib.org/</dc:title>
     </cc:Agent>
    </dc:creator>
   </cc:Work>
  </rdf:RDF>
 </metadata>
 <defs>
  <style type="text/css">*{stroke-linejoin: round; stroke-linecap: butt}</style>
 </defs>
 <g id="figure_1">
  <g id="patch_1">
   <path d="M 0 345.6 
L 460.8 345.6 
L 460.8 0 
L 0 0 
L 0 345.6 
z
" style="fill: none"/>
  </g>
  <g id="axes_1">
   <g id="patch_2">
    <path d="M 57.6 307.584 
L 414.72 307.584 
L 414.72 41.472 
L 57.6 41.472 
L 57.6 307.584 
z
" style="fill: none"/>
   </g>
   <g id="PathCollection_1">
    <defs>
     <path id="m01aad706d8" d="M 0 3 
C 0.795609 3 1.55874 2.683901 2.12132 2.12132 
C 2.683901 1.55874 3 0.795609 3 0 
C 3 -0.795609 2.683901 -1.55874 2.12132 -2.12132 
C 1.55874 -2.683901 0.795609 -3 0 -3 
C -0.795609 -3 -1.55874 -2.683901 -2.12132 -2.12132 
C -2.683901 -1.55874 -3 -0.795609 -3 0 
C -3 0.795609 -2.683901 1.55874 -2.12132 2.12132 
C -1.55874 2.683901 -0.795609 3 0 3 
z
" style="stroke: #c58011"/>
    </defs>
    <g clip-path="url(#pb8087732de)">
     <use xlink:href="#m01aad706d8" x="192.456503" y="134.382889" style="fill: #c58011; stroke: #c58011"/>
     <use xlink:href="#m01aad706d8" x="111.292867" y="163.95764" style="fill: #c58011; stroke: #c58011"/>
     <use xlink:href="#m01aad706d8" x="192.456503" y="131.642609" style="fill: #c58011; stroke: #c58011"/>
     <use xlink:href="#m01aad706d8" x="179.96979" y="133.70775" style="fill: #c58011; stroke: #c58011"/>
     <use xlink:href="#m01aad706d8" x="183.091469" y="128.428718" style="fill: #c58011; stroke: #c58011"/>
     <use xlink:href="#m01aad706d8" x="329.81035" y="132.122323" style="fill: #c58011; stroke: #c58011"/>
     <use xlink:href="#m01aad706d8" x="158.118042" y="142.570018" style="fill: #c58011; stroke: #c58011"/>
     <use xlink:href="#m01aad706d8" x="192.456503" y="143.940096" style="fill: #c58011; stroke: #c58011"/>
     <use xlink:href="#m01aad706d8" x="167.483077" y="174.855428" style="fill: #c58011; stroke: #c58011"/>
     <use xlink:href="#m01aad706d8" x="204.943217" y="130.668709" style="fill: #c58011; stroke: #c58011"/>
     <use xlink:href="#m01aad706d8" x="176.848112" y="159.200649" style="fill: #c58011; stroke: #c58011"/>
     <use xlink:href="#m01aad706d8" x="173.726434" y="155.663147" style="fill: #c58011; stroke: #c58011"/>
     <use xlink:href="#m01aad706d8" x="226.794965" y="207.856227" style="fill: #c58011; stroke: #c58011"/>
     <use xlink:href="#m01aad706d8" x="233.038322" y="160.575995" style="fill: #c58011; stroke: #c58011"/>
     <use xlink:href="#m01aad706d8" x="98.806154" y="233.764422" style="fill: #c58011; stroke: #c58011"/>
     <use xlink:href="#m01aad706d8" x="164.361399" y="200.107385" style="fill: #c58011; stroke: #c58011"/>
     <use xlink:href="#m01aad706d8" x="161.23972" y="263.996589" style="fill: #c58011; stroke: #c58011"/>
     <use xlink:href="#m01aad706d8" x="201.821538" y="183.644881" style="fill: #c58011; stroke: #c58011"/>
     <use xlink:href="#m01aad706d8" x="311.08028" y="107.825086" style="fill: #c58011; stroke: #c58011"/>
     <use xlink:href="#m01aad706d8" x="186.213147" y="198.038464" style="fill: #c58011; stroke: #c58011"/>
     <use xlink:href="#m01aad706d8" x="179.96979" y="203.824323" style="fill: #c58011; stroke: #c58011"/>
     <use xlink:href="#m01aad706d8" x="254.89007" y="176.567584" style="fill: #c58011; stroke: #c58011"/>
     <use xlink:href="#m01aad706d8" x="158.118042" y="216.348716" style="fill: #c58011; stroke: #c58011"/>
     <use xlink:href="#m01aad706d8" x="161.23972" y="154.475201" style="fill: #c58011; stroke: #c58011"/>
     <use xlink:href="#m01aad706d8" x="323.566993" y="117.407546" style="fill: #c58011; stroke: #c58011"/>
     <use xlink:href="#m01aad706d8" x="179.96979" y="181.771384" style="fill: #c58011; stroke: #c58011"/>
     <use xlink:href="#m01aad706d8" x="164.361399" y="178.907565" style="fill: #c58011; stroke: #c58011"/>
     <use xlink:href="#m01aad706d8" x="229.916643" y="90.061911" style="fill: #c58011; stroke: #c58011"/>
     <use xlink:href="#m01aad706d8" x="142.50965" y="169.162432" style="fill: #c58011; stroke: #c58011"/>
     <use xlink:href="#m01aad706d8" x="314.201958" y="81.056366" style="fill: #c58011; stroke: #c58011"/>
     <use xlink:href="#m01aad706d8" x="398.487273" y="70.333119" style="fill: #c58011; stroke: #c58011"/>
     <use xlink:href="#m01aad706d8" x="148.753007" y="144.801736" style="fill: #c58011; stroke: #c58011"/>
     <use xlink:href="#m01aad706d8" x="161.23972" y="148.117941" style="fill: #c58011; stroke: #c58011"/>
     <use xlink:href="#m01aad706d8" x="92.562797" y="188.938755" style="fill: #c58011; stroke: #c58011"/>
     <use xlink:href="#m01aad706d8" x="151.874685" y="197.550259" style="fill: #c58011; stroke: #c58011"/>
     <use xlink:href="#m01aad706d8" x="273.62014" y="145.695694" style="fill: #c58011; stroke: #c58011"/>
     <use xlink:href="#m01aad706d8" x="154.996364" y="215.472079" style="fill: #c58011; stroke: #c58011"/>
     <use xlink:href="#m01aad706d8" x="126.901259" y="223.596928" style="fill: #c58011; stroke: #c58011"/>
     <use xlink:href="#m01aad706d8" x="108.171189" y="222.067213" style="fill: #c58011; stroke: #c58011"/>
     <use xlink:href="#m01aad706d8" x="86.319441" y="286.169752" style="fill: #c58011; stroke: #c58011"/>
     <use xlink:href="#m01aad706d8" x="173.726434" y="245.69114" style="fill: #c58011; stroke: #c58011"/>
     <use xlink:href="#m01aad706d8" x="151.874685" y="190.661446" style="fill: #c58011; stroke: #c58011"/>
     <use xlink:href="#m01aad706d8" x="123.77958" y="275.066903" style="fill: #c58011; stroke: #c58011"/>
     <use xlink:href="#m01aad706d8" x="170.604755" y="218.319166" style="fill: #c58011; stroke: #c58011"/>
     <use xlink:href="#m01aad706d8" x="123.77958" y="221.790174" style="fill: #c58011; stroke: #c58011"/>
     <use xlink:href="#m01aad706d8" x="73.832727" y="293.818696" style="fill: #c58011; stroke: #c58011"/>
     <use xlink:href="#m01aad706d8" x="108.171189" y="282.953629" style="fill: #c58011; stroke: #c58011"/>
     <use xlink:href="#m01aad706d8" x="145.631329" y="246.709379" style="fill: #c58011; stroke: #c58011"/>
     <use xlink:href="#m01aad706d8" x="136.266294" y="261.800132" style="fill: #c58011; stroke: #c58011"/>
     <use xlink:href="#m01aad706d8" x="173.726434" y="233.655478" style="fill: #c58011; stroke: #c58011"/>
     <use xlink:href="#m01aad706d8" x="126.901259" y="295.488" style="fill: #c58011; stroke: #c58011"/>
    </g>
   </g>
   <g id="matplotlib.axis_1">
    <g id="xtick_1">
     <g id="line2d_1">
      <path d="M 86.319441 307.584 
L 86.319441 41.472 
" clip-path="url(#pb8087732de)" style="fill: none; stroke: #b0b0b0; stroke-opacity: 0.2; stroke-width: 0.8; stroke-linecap: square"/>
     </g>
     <g id="line2d_2">
      <defs>
       <path id="m38a505d8d9" d="M 0 0 
L 0 3.5 
" style="stroke: #000000; stroke-width: 0.8"/>
      </defs>
      <g>
       <use xlink:href="#m38a505d8d9" x="86.319441" y="307.584" style="stroke: #000000; stroke-width: 0.8"/>
      </g>
     </g>
     <g id="text_1">
      <!-- 20 -->
      <g transform="translate(79.956941 322.182437) scale(0.1 -0.1)">
       <defs>
        <path id="DejaVuSans-32" d="M 1228 531 
L 3431 531 
L 3431 0 
L 469 0 
L 469 531 
Q 828 903 1448 1529 
Q 2069 2156 2228 2338 
Q 2531 2678 2651 2914 
Q 2772 3150 2772 3378 
Q 2772 3750 2511 3984 
Q 2250 4219 1831 4219 
Q 1534 4219 1204 4116 
Q 875 4013 500 3803 
L 500 4441 
Q 881 4594 1212 4672 
Q 1544 4750 1819 4750 
Q 2544 4750 2975 4387 
Q 3406 4025 3406 3419 
Q 3406 3131 3298 2873 
Q 3191 2616 2906 2266 
Q 2828 2175 2409 1742 
Q 1991 1309 1228 531 
z
" transform="scale(0.015625)"/>
        <path id="DejaVuSans-30" d="M 2034 4250 
Q 1547 4250 1301 3770 
Q 1056 3291 1056 2328 
Q 1056 1369 1301 889 
Q 1547 409 2034 409 
Q 2525 409 2770 889 
Q 3016 1369 3016 2328 
Q 3016 3291 2770 3770 
Q 2525 4250 2034 4250 
z
M 2034 4750 
Q 2819 4750 3233 4129 
Q 3647 3509 3647 2328 
Q 3647 1150 3233 529 
Q 2819 -91 2034 -91 
Q 1250 -91 836 529 
Q 422 1150 422 2328 
Q 422 3509 836 4129 
Q 1250 4750 2034 4750 
z
" transform="scale(0.015625)"/>
       </defs>
       <use xlink:href="#DejaVuSans-32"/>
       <use xlink:href="#DejaVuSans-30" transform="translate(63.623047 0)"/>
      </g>
     </g>
    </g>
    <g id="xtick_2">
     <g id="line2d_3">
      <path d="M 148.753007 307.584 
L 148.753007 41.472 
" clip-path="url(#pb8087732de)" style="fill: none; stroke: #b0b0b0; stroke-opacity: 0.2; stroke-width: 0.8; stroke-linecap: square"/>
     </g>
     <g id="line2d_4">
      <g>
       <use xlink:href="#m38a505d8d9" x="148.753007" y="307.584" style="stroke: #000000; stroke-width: 0.8"/>
      </g>
     </g>
     <g id="text_2">
      <!-- 40 -->
      <g transform="translate(142.390507 322.182437) scale(0.1 -0.1)">
       <defs>
        <path id="DejaVuSans-34" d="M 2419 4116 
L 825 1625 
L 2419 1625 
L 2419 4116 
z
M 2253 4666 
L 3047 4666 
L 3047 1625 
L 3713 1625 
L 3713 1100 
L 3047 1100 
L 3047 0 
L 2419 0 
L 2419 1100 
L 313 1100 
L 313 1709 
L 2253 4666 
z
" transform="scale(0.015625)"/>
       </defs>
       <use xlink:href="#DejaVuSans-34"/>
       <use xlink:href="#DejaVuSans-30" transform="translate(63.623047 0)"/>
      </g>
     </g>
    </g>
    <g id="xtick_3">
     <g id="line2d_5">
      <path d="M 211.186573 307.584 
L 211.186573 41.472 
" clip-path="url(#pb8087732de)" style="fill: none; stroke: #b0b0b0; stroke-opacity: 0.2; stroke-width: 0.8; stroke-linecap: square"/>
     </g>
     <g id="line2d_6">
      <g>
       <use xlink:href="#m38a505d8d9" x="211.186573" y="307.584" style="stroke: #000000; stroke-width: 0.8"/>
      </g>
     </g>
     <g id="text_3">
      <!-- 60 -->
      <g transform="translate(204.824073 322.182437) scale(0.1 -0.1)">
       <defs>
        <path id="DejaVuSans-36" d="M 2113 2584 
Q 1688 2584 1439 2293 
Q 1191 2003 1191 1497 
Q 1191 994 1439 701 
Q 1688 409 2113 409 
Q 2538 409 2786 701 
Q 3034 994 3034 1497 
Q 3034 2003 2786 2293 
Q 2538 2584 2113 2584 
z
M 3366 4563 
L 3366 3988 
Q 3128 4100 2886 4159 
Q 2644 4219 2406 4219 
Q 1781 4219 1451 3797 
Q 1122 3375 1075 2522 
Q 1259 2794 1537 2939 
Q 1816 3084 2150 3084 
Q 2853 3084 3261 2657 
Q 3669 2231 3669 1497 
Q 3669 778 3244 343 
Q 2819 -91 2113 -91 
Q 1303 -91 875 529 
Q 447 1150 447 2328 
Q 447 3434 972 4092 
Q 1497 4750 2381 4750 
Q 2619 4750 2861 4703 
Q 3103 4656 3366 4563 
z
" transform="scale(0.015625)"/>
       </defs>
       <use xlink:href="#DejaVuSans-36"/>
       <use xlink:href="#DejaVuSans-30" transform="translate(63.623047 0)"/>
      </g>
     </g>
    </g>
    <g id="xtick_4">
     <g id="line2d_7">
      <path d="M 273.62014 307.584 
L 273.62014 41.472 
" clip-path="url(#pb8087732de)" style="fill: none; stroke: #b0b0b0; stroke-opacity: 0.2; stroke-width: 0.8; stroke-linecap: square"/>
     </g>
     <g id="line2d_8">
      <g>
       <use xlink:href="#m38a505d8d9" x="273.62014" y="307.584" style="stroke: #000000; stroke-width: 0.8"/>
      </g>
     </g>
     <g id="text_4">
      <!-- 80 -->
      <g transform="translate(267.25764 322.182437) scale(0.1 -0.1)">
       <defs>
        <path id="DejaVuSans-38" d="M 2034 2216 
Q 1584 2216 1326 1975 
Q 1069 1734 1069 1313 
Q 1069 891 1326 650 
Q 1584 409 2034 409 
Q 2484 409 2743 651 
Q 3003 894 3003 1313 
Q 3003 1734 2745 1975 
Q 2488 2216 2034 2216 
z
M 1403 2484 
Q 997 2584 770 2862 
Q 544 3141 544 3541 
Q 544 4100 942 4425 
Q 1341 4750 2034 4750 
Q 2731 4750 3128 4425 
Q 3525 4100 3525 3541 
Q 3525 3141 3298 2862 
Q 3072 2584 2669 2484 
Q 3125 2378 3379 2068 
Q 3634 1759 3634 1313 
Q 3634 634 3220 271 
Q 2806 -91 2034 -91 
Q 1263 -91 848 271 
Q 434 634 434 1313 
Q 434 1759 690 2068 
Q 947 2378 1403 2484 
z
M 1172 3481 
Q 1172 3119 1398 2916 
Q 1625 2713 2034 2713 
Q 2441 2713 2670 2916 
Q 2900 3119 2900 3481 
Q 2900 3844 2670 4047 
Q 2441 4250 2034 4250 
Q 1625 4250 1398 4047 
Q 1172 3844 1172 3481 
z
" transform="scale(0.015625)"/>
       </defs>
       <use xlink:href="#DejaVuSans-38"/>
       <use xlink:href="#DejaVuSans-30" transform="translate(63.623047 0)"/>
      </g>
     </g>
    </g>
    <g id="xtick_5">
     <g id="line2d_9">
      <path d="M 336.053706 307.584 
L 336.053706 41.472 
" clip-path="url(#pb8087732de)" style="fill: none; stroke: #b0b0b0; stroke-opacity: 0.2; stroke-width: 0.8; stroke-linecap: square"/>
     </g>
     <g id="line2d_10">
      <g>
       <use xlink:href="#m38a505d8d9" x="336.053706" y="307.584" style="stroke: #000000; stroke-width: 0.8"/>
      </g>
     </g>
     <g id="text_5">
      <!-- 100 -->
      <g transform="translate(326.509956 322.182437) scale(0.1 -0.1)">
       <defs>
        <path id="DejaVuSans-31" d="M 794 531 
L 1825 531 
L 1825 4091 
L 703 3866 
L 703 4441 
L 1819 4666 
L 2450 4666 
L 2450 531 
L 3481 531 
L 3481 0 
L 794 0 
L 794 531 
z
" transform="scale(0.015625)"/>
       </defs>
       <use xlink:href="#DejaVuSans-31"/>
       <use xlink:href="#DejaVuSans-30" transform="translate(63.623047 0)"/>
       <use xlink:href="#DejaVuSans-30" transform="translate(127.246094 0)"/>
      </g>
     </g>
    </g>
    <g id="xtick_6">
     <g id="line2d_11">
      <path d="M 398.487273 307.584 
L 398.487273 41.472 
" clip-path="url(#pb8087732de)" style="fill: none; stroke: #b0b0b0; stroke-opacity: 0.2; stroke-width: 0.8; stroke-linecap: square"/>
     </g>
     <g id="line2d_12">
      <g>
       <use xlink:href="#m38a505d8d9" x="398.487273" y="307.584" style="stroke: #000000; stroke-width: 0.8"/>
      </g>
     </g>
     <g id="text_6">
      <!-- 120 -->
      <g transform="translate(388.943523 322.182437) scale(0.1 -0.1)">
       <use xlink:href="#DejaVuSans-31"/>
       <use xlink:href="#DejaVuSans-32" transform="translate(63.623047 0)"/>
       <use xlink:href="#DejaVuSans-30" transform="translate(127.246094 0)"/>
      </g>
     </g>
    </g>
   </g>
   <g id="matplotlib.axis_2">
    <g id="ytick_1">
     <g id="line2d_13">
      <path d="M 57.6 296.934798 
L 414.72 296.934798 
" clip-path="url(#pb8087732de)" style="fill: none; stroke: #b0b0b0; stroke-opacity: 0.2; stroke-width: 0.8; stroke-linecap: square"/>
     </g>
     <g id="line2d_14">
      <defs>
       <path id="mf09860d879" d="M 0 0 
L -3.5 0 
" style="stroke: #000000; stroke-width: 0.8"/>
      </defs>
      <g>
       <use xlink:href="#mf09860d879" x="57.6" y="296.934798" style="stroke: #000000; stroke-width: 0.8"/>
      </g>
     </g>
     <g id="text_7">
      <!-- 18 -->
      <g transform="translate(37.875 300.734017) scale(0.1 -0.1)">
       <use xlink:href="#DejaVuSans-31"/>
       <use xlink:href="#DejaVuSans-38" transform="translate(63.623047 0)"/>
      </g>
     </g>
    </g>
    <g id="ytick_2">
     <g id="line2d_15">
      <path d="M 57.6 264.444327 
L 414.72 264.444327 
" clip-path="url(#pb8087732de)" style="fill: none; stroke: #b0b0b0; stroke-opacity: 0.2; stroke-width: 0.8; stroke-linecap: square"/>
     </g>
     <g id="line2d_16">
      <g>
       <use xlink:href="#mf09860d879" x="57.6" y="264.444327" style="stroke: #000000; stroke-width: 0.8"/>
      </g>
     </g>
     <g id="text_8">
      <!-- 20 -->
      <g transform="translate(37.875 268.243546) scale(0.1 -0.1)">
       <use xlink:href="#DejaVuSans-32"/>
       <use xlink:href="#DejaVuSans-30" transform="translate(63.623047 0)"/>
      </g>
     </g>
    </g>
    <g id="ytick_3">
     <g id="line2d_17">
      <path d="M 57.6 231.953857 
L 414.72 231.953857 
" clip-path="url(#pb8087732de)" style="fill: none; stroke: #b0b0b0; stroke-opacity: 0.2; stroke-width: 0.8; stroke-linecap: square"/>
     </g>
     <g id="line2d_18">
      <g>
       <use xlink:href="#mf09860d879" x="57.6" y="231.953857" style="stroke: #000000; stroke-width: 0.8"/>
      </g>
     </g>
     <g id="text_9">
      <!-- 22 -->
      <g transform="translate(37.875 235.753075) scale(0.1 -0.1)">
       <use xlink:href="#DejaVuSans-32"/>
       <use xlink:href="#DejaVuSans-32" transform="translate(63.623047 0)"/>
      </g>
     </g>
    </g>
    <g id="ytick_4">
     <g id="line2d_19">
      <path d="M 57.6 199.463386 
L 414.72 199.463386 
" clip-path="url(#pb8087732de)" style="fill: none; stroke: #b0b0b0; stroke-opacity: 0.2; stroke-width: 0.8; stroke-linecap: square"/>
     </g>
     <g id="line2d_20">
      <g>
       <use xlink:href="#mf09860d879" x="57.6" y="199.463386" style="stroke: #000000; stroke-width: 0.8"/>
      </g>
     </g>
     <g id="text_10">
      <!-- 24 -->
      <g transform="translate(37.875 203.262605) scale(0.1 -0.1)">
       <use xlink:href="#DejaVuSans-32"/>
       <use xlink:href="#DejaVuSans-34" transform="translate(63.623047 0)"/>
      </g>
     </g>
    </g>
    <g id="ytick_5">
     <g id="line2d_21">
      <path d="M 57.6 166.972915 
L 414.72 166.972915 
" clip-path="url(#pb8087732de)" style="fill: none; stroke: #b0b0b0; stroke-opacity: 0.2; stroke-width: 0.8; stroke-linecap: square"/>
     </g>
     <g id="line2d_22">
      <g>
       <use xlink:href="#mf09860d879" x="57.6" y="166.972915" style="stroke: #000000; stroke-width: 0.8"/>
      </g>
     </g>
     <g id="text_11">
      <!-- 26 -->
      <g transform="translate(37.875 170.772134) scale(0.1 -0.1)">
       <use xlink:href="#DejaVuSans-32"/>
       <use xlink:href="#DejaVuSans-36" transform="translate(63.623047 0)"/>
      </g>
     </g>
    </g>
    <g id="ytick_6">
     <g id="line2d_23">
      <path d="M 57.6 134.482445 
L 414.72 134.482445 
" clip-path="url(#pb8087732de)" style="fill: none; stroke: #b0b0b0; stroke-opacity: 0.2; stroke-width: 0.8; stroke-linecap: square"/>
     </g>
     <g id="line2d_24">
      <g>
       <use xlink:href="#mf09860d879" x="57.6" y="134.482445" style="stroke: #000000; stroke-width: 0.8"/>
      </g>
     </g>
     <g id="text_12">
      <!-- 28 -->
      <g transform="translate(37.875 138.281664) scale(0.1 -0.1)">
       <use xlink:href="#DejaVuSans-32"/>
       <use xlink:href="#DejaVuSans-38" transform="translate(63.623047 0)"/>
      </g>
     </g>
    </g>
    <g id="ytick_7">
     <g id="line2d_25">
      <path d="M 57.6 101.991974 
L 414.72 101.991974 
" clip-path="url(#pb8087732de)" style="fill: none; stroke: #b0b0b0; stroke-opacity: 0.2; stroke-width: 0.8; stroke-linecap: square"/>
     </g>
     <g id="line2d_26">
      <g>
       <use xlink:href="#mf09860d879" x="57.6" y="101.991974" style="stroke: #000000; stroke-width: 0.8"/>
      </g>
     </g>
     <g id="text_13">
      <!-- 30 -->
      <g transform="translate(37.875 105.791193) scale(0.1 -0.1)">
       <defs>
        <path id="DejaVuSans-33" d="M 2597 2516 
Q 3050 2419 3304 2112 
Q 3559 1806 3559 1356 
Q 3559 666 3084 287 
Q 2609 -91 1734 -91 
Q 1441 -91 1130 -33 
Q 819 25 488 141 
L 488 750 
Q 750 597 1062 519 
Q 1375 441 1716 441 
Q 2309 441 2620 675 
Q 2931 909 2931 1356 
Q 2931 1769 2642 2001 
Q 2353 2234 1838 2234 
L 1294 2234 
L 1294 2753 
L 1863 2753 
Q 2328 2753 2575 2939 
Q 2822 3125 2822 3475 
Q 2822 3834 2567 4026 
Q 2313 4219 1838 4219 
Q 1578 4219 1281 4162 
Q 984 4106 628 3988 
L 628 4550 
Q 988 4650 1302 4700 
Q 1616 4750 1894 4750 
Q 2613 4750 3031 4423 
Q 3450 4097 3450 3541 
Q 3450 3153 3228 2886 
Q 3006 2619 2597 2516 
z
" transform="scale(0.015625)"/>
       </defs>
       <use xlink:href="#DejaVuSans-33"/>
       <use xlink:href="#DejaVuSans-30" transform="translate(63.623047 0)"/>
      </g>
     </g>
    </g>
    <g id="ytick_8">
     <g id="line2d_27">
      <path d="M 57.6 69.501504 
L 414.72 69.501504 
" clip-path="url(#pb8087732de)" style="fill: none; stroke: #b0b0b0; stroke-opacity: 0.2; stroke-width: 0.8; stroke-linecap: square"/>
     </g>
     <g id="line2d_28">
      <g>
       <use xlink:href="#mf09860d879" x="57.6" y="69.501504" style="stroke: #000000; stroke-width: 0.8"/>
      </g>
     </g>
     <g id="text_14">
      <!-- 32 -->
      <g transform="translate(37.875 73.300722) scale(0.1 -0.1)">
       <use xlink:href="#DejaVuSans-33"/>
       <use xlink:href="#DejaVuSans-32" transform="translate(63.623047 0)"/>
      </g>
     </g>
    </g>
   </g>
   <g id="line2d_29">
    <path d="M 192.456503 177.90915 
L 111.292867 226.892027 
L 192.456503 177.90915 
L 179.96979 185.444977 
L 183.091469 183.561021 
L 329.81035 95.01505 
L 158.118042 198.632675 
L 192.456503 177.90915 
L 167.483077 192.980805 
L 204.943217 170.373323 
L 176.848112 187.328934 
L 173.726434 189.212891 
L 226.794965 157.185625 
L 233.038322 153.417711 
L 98.806154 234.427855 
L 164.361399 194.864761 
L 161.23972 196.748718 
L 201.821538 172.25728 
L 311.08028 106.318791 
L 186.213147 181.677064 
L 179.96979 185.444977 
L 254.89007 140.230014 
L 158.118042 198.632675 
L 161.23972 196.748718 
L 323.566993 98.782964 
L 179.96979 185.444977 
L 164.361399 194.864761 
L 229.916643 155.301668 
L 142.50965 208.052459 
L 314.201958 104.434834 
L 398.487273 53.568 
L 148.753007 204.284546 
L 161.23972 196.748718 
L 92.562797 238.195768 
L 151.874685 202.400589 
L 273.62014 128.926273 
L 154.996364 200.516632 
L 126.901259 217.472243 
L 108.171189 228.775984 
L 86.319441 241.963682 
L 173.726434 189.212891 
L 151.874685 202.400589 
L 123.77958 219.3562 
L 170.604755 191.096848 
L 123.77958 219.3562 
L 73.832727 249.499509 
L 108.171189 228.775984 
L 145.631329 206.168502 
L 136.266294 211.820373 
L 173.726434 189.212891 
L 126.901259 217.472243 
" clip-path="url(#pb8087732de)" style="fill: none; stroke: #9e0000; stroke-width: 1.5; stroke-linecap: square"/>
   </g>
   <g id="patch_3">
    <path d="M 57.6 307.584 
L 57.6 41.472 
" style="fill: none; stroke: #000000; stroke-width: 0.8; stroke-linejoin: miter; stroke-linecap: square"/>
   </g>
   <g id="patch_4">
    <path d="M 414.72 307.584 
L 414.72 41.472 
" style="fill: none; stroke: #000000; stroke-width: 0.8; stroke-linejoin: miter; stroke-linecap: square"/>
   </g>
   <g id="patch_5">
    <path d="M 57.6 307.584 
L 414.72 307.584 
" style="fill: none; stroke: #000000; stroke-width: 0.8; stroke-linejoin: miter; stroke-linecap: square"/>
   </g>
   <g id="patch_6">
    <path d="M 57.6 41.472 
L 414.72 41.472 
" style="fill: none; stroke: #000000; stroke-width: 0.8; stroke-linejoin: miter; stroke-linecap: square"/>
   </g>
  </g>
 </g>
 <defs>
  <clipPath id="pb8087732de">
   <rect x="57.6" y="41.472" width="357.12" height="266.112"/>
  </clipPath>
 </defs>
</svg>
